solid MotorMount
  facet normal 0.000000e+00 0.000000e+00 1.000000e+00
    outer loop
      vertex 40.0000 0.0000 0.0000
      vertex 36.9552 15.3073 0.0000
      vertex 0.0000 0.0000 0.0000
    endloop
  endfacet
  facet normal 0.000000e+00 0.000000e+00 1.000000e+00
    outer loop
      vertex 40.0000 0.0000 8.0000
      vertex 36.9552 15.3073 8.0000
      vertex 0.0000 0.0000 8.0000
    endloop
  endfacet
  facet normal -9.807853e-01 -1.950903e-01 0.000000e+00
    outer loop
      vertex 40.0000 0.0000 0.0000
      vertex 40.0000 0.0000 8.0000
      vertex 36.9552 15.3073 8.0000
    endloop
  endfacet
  facet normal -9.807853e-01 -1.950903e-01 0.000000e+00
    outer loop
      vertex 40.0000 0.0000 0.0000
      vertex 36.9552 15.3073 8.0000
      vertex 36.9552 15.3073 0.0000
    endloop
  endfacet
  facet normal 0.000000e+00 0.000000e+00 1.000000e+00
    outer loop
      vertex 36.9552 15.3073 0.0000
      vertex 28.2843 28.2843 0.0000
      vertex 0.0000 0.0000 0.0000
    endloop
  endfacet
  facet normal 0.000000e+00 0.000000e+00 1.000000e+00
    outer loop
      vertex 36.9552 15.3073 8.0000
      vertex 28.2843 28.2843 8.0000
      vertex 0.0000 0.0000 8.0000
    endloop
  endfacet
  facet normal -8.314696e-01 -5.555702e-01 0.000000e+00
    outer loop
      vertex 36.9552 15.3073 0.0000
      vertex 36.9552 15.3073 8.0000
      vertex 28.2843 28.2843 8.0000
    endloop
  endfacet
  facet normal -8.314696e-01 -5.555702e-01 0.000000e+00
    outer loop
      vertex 36.9552 15.3073 0.0000
      vertex 28.2843 28.2843 8.0000
      vertex 28.2843 28.2843 0.0000
    endloop
  endfacet
  facet normal 0.000000e+00 0.000000e+00 1.000000e+00
    outer loop
      vertex 28.2843 28.2843 0.0000
      vertex 15.3073 36.9552 0.0000
      vertex 0.0000 0.0000 0.0000
    endloop
  endfacet
  facet normal 0.000000e+00 0.000000e+00 1.000000e+00
    outer loop
      vertex 28.2843 28.2843 8.0000
      vertex 15.3073 36.9552 8.0000
      vertex 0.0000 0.0000 8.0000
    endloop
  endfacet
  facet normal -5.555702e-01 -8.314696e-01 0.000000e+00
    outer loop
      vertex 28.2843 28.2843 0.0000
      vertex 28.2843 28.2843 8.0000
      vertex 15.3073 36.9552 8.0000
    endloop
  endfacet
  facet normal -5.555702e-01 -8.314696e-01 0.000000e+00
    outer loop
      vertex 28.2843 28.2843 0.0000
      vertex 15.3073 36.9552 8.0000
      vertex 15.3073 36.9552 0.0000
    endloop
  endfacet
  facet normal 0.000000e+00 0.000000e+00 1.000000e+00
    outer loop
      vertex 15.3073 36.9552 0.0000
      vertex 0.0000 40.0000 0.0000
      vertex 0.0000 0.0000 0.0000
    endloop
  endfacet
  facet normal 0.000000e+00 0.000000e+00 1.000000e+00
    outer loop
      vertex 15.3073 36.9552 8.0000
      vertex 0.0000 40.0000 8.0000
      vertex 0.0000 0.0000 8.0000
    endloop
  endfacet
  facet normal -1.950903e-01 -9.807853e-01 0.000000e+00
    outer loop
      vertex 15.3073 36.9552 0.0000
      vertex 15.3073 36.9552 8.0000
      vertex 0.0000 40.0000 8.0000
    endloop
  endfacet
  facet normal -1.950903e-01 -9.807853e-01 0.000000e+00
    outer loop
      vertex 15.3073 36.9552 0.0000
      vertex 0.0000 40.0000 8.0000
      vertex 0.0000 40.0000 0.0000
    endloop
  endfacet
  facet normal 0.000000e+00 0.000000e+00 1.000000e+00
    outer loop
      vertex 0.0000 40.0000 0.0000
      vertex -15.3073 36.9552 0.0000
      vertex 0.0000 0.0000 0.0000
    endloop
  endfacet
  facet normal 0.000000e+00 0.000000e+00 1.000000e+00
    outer loop
      vertex 0.0000 40.0000 8.0000
      vertex -15.3073 36.9552 8.0000
      vertex 0.0000 0.0000 8.0000
    endloop
  endfacet
  facet normal 1.950903e-01 -9.807853e-01 0.000000e+00
    outer loop
      vertex 0.0000 40.0000 0.0000
      vertex 0.0000 40.0000 8.0000
      vertex -15.3073 36.9552 8.0000
    endloop
  endfacet
  facet normal 1.950903e-01 -9.807853e-01 0.000000e+00
    outer loop
      vertex 0.0000 40.0000 0.0000
      vertex -15.3073 36.9552 8.0000
      vertex -15.3073 36.9552 0.0000
    endloop
  endfacet
  facet normal 0.000000e+00 0.000000e+00 1.000000e+00
    outer loop
      vertex -15.3073 36.9552 0.0000
      vertex -28.2843 28.2843 0.0000
      vertex 0.0000 0.0000 0.0000
    endloop
  endfacet
  facet normal 0.000000e+00 0.000000e+00 1.000000e+00
    outer loop
      vertex -15.3073 36.9552 8.0000
      vertex -28.2843 28.2843 8.0000
      vertex 0.0000 0.0000 8.0000
    endloop
  endfacet
  facet normal 5.555702e-01 -8.314696e-01 0.000000e+00
    outer loop
      vertex -15.3073 36.9552 0.0000
      vertex -15.3073 36.9552 8.0000
      vertex -28.2843 28.2843 8.0000
    endloop
  endfacet
  facet normal 5.555702e-01 -8.314696e-01 0.000000e+00
    outer loop
      vertex -15.3073 36.9552 0.0000
      vertex -28.2843 28.2843 8.0000
      vertex -28.2843 28.2843 0.0000
    endloop
  endfacet
  facet normal 0.000000e+00 0.000000e+00 1.000000e+00
    outer loop
      vertex -28.2843 28.2843 0.0000
      vertex -36.9552 15.3073 0.0000
      vertex 0.0000 0.0000 0.0000
    endloop
  endfacet
  facet normal 0.000000e+00 0.000000e+00 1.000000e+00
    outer loop
      vertex -28.2843 28.2843 8.0000
      vertex -36.9552 15.3073 8.0000
      vertex 0.0000 0.0000 8.0000
    endloop
  endfacet
  facet normal 8.314696e-01 -5.555702e-01 0.000000e+00
    outer loop
      vertex -28.2843 28.2843 0.0000
      vertex -28.2843 28.2843 8.0000
      vertex -36.9552 15.3073 8.0000
    endloop
  endfacet
  facet normal 8.314696e-01 -5.555702e-01 0.000000e+00
    outer loop
      vertex -28.2843 28.2843 0.0000
      vertex -36.9552 15.3073 8.0000
      vertex -36.9552 15.3073 0.0000
    endloop
  endfacet
  facet normal 0.000000e+00 0.000000e+00 1.000000e+00
    outer loop
      vertex -36.9552 15.3073 0.0000
      vertex -40.0000 0.0000 0.0000
      vertex 0.0000 0.0000 0.0000
    endloop
  endfacet
  facet normal 0.000000e+00 0.000000e+00 1.000000e+00
    outer loop
      vertex -36.9552 15.3073 8.0000
      vertex -40.0000 0.0000 8.0000
      vertex 0.0000 0.0000 8.0000
    endloop
  endfacet
  facet normal 9.807853e-01 -1.950903e-01 0.000000e+00
    outer loop
      vertex -36.9552 15.3073 0.0000
      vertex -36.9552 15.3073 8.0000
      vertex -40.0000 0.0000 8.0000
    endloop
  endfacet
  facet normal 9.807853e-01 -1.950903e-01 0.000000e+00
    outer loop
      vertex -36.9552 15.3073 0.0000
      vertex -40.0000 0.0000 8.0000
      vertex -40.0000 0.0000 0.0000
    endloop
  endfacet
  facet normal 0.000000e+00 0.000000e+00 1.000000e+00
    outer loop
      vertex -40.0000 0.0000 0.0000
      vertex -36.9552 -15.3073 0.0000
      vertex 0.0000 0.0000 0.0000
    endloop
  endfacet
  facet normal 0.000000e+00 0.000000e+00 1.000000e+00
    outer loop
      vertex -40.0000 0.0000 8.0000
      vertex -36.9552 -15.3073 8.0000
      vertex 0.0000 0.0000 8.0000
    endloop
  endfacet
  facet normal 9.807853e-01 1.950903e-01 -0.000000e+00
    outer loop
      vertex -40.0000 0.0000 0.0000
      vertex -40.0000 0.0000 8.0000
      vertex -36.9552 -15.3073 8.0000
    endloop
  endfacet
  facet normal 9.807853e-01 1.950903e-01 0.000000e+00
    outer loop
      vertex -40.0000 0.0000 0.0000
      vertex -36.9552 -15.3073 8.0000
      vertex -36.9552 -15.3073 0.0000
    endloop
  endfacet
  facet normal -0.000000e+00 0.000000e+00 1.000000e+00
    outer loop
      vertex -36.9552 -15.3073 0.0000
      vertex -28.2843 -28.2843 0.0000
      vertex 0.0000 0.0000 0.0000
    endloop
  endfacet
  facet normal -0.000000e+00 0.000000e+00 1.000000e+00
    outer loop
      vertex -36.9552 -15.3073 8.0000
      vertex -28.2843 -28.2843 8.0000
      vertex 0.0000 0.0000 8.0000
    endloop
  endfacet
  facet normal 8.314696e-01 5.555702e-01 -0.000000e+00
    outer loop
      vertex -36.9552 -15.3073 0.0000
      vertex -36.9552 -15.3073 8.0000
      vertex -28.2843 -28.2843 8.0000
    endloop
  endfacet
  facet normal 8.314696e-01 5.555702e-01 0.000000e+00
    outer loop
      vertex -36.9552 -15.3073 0.0000
      vertex -28.2843 -28.2843 8.0000
      vertex -28.2843 -28.2843 0.0000
    endloop
  endfacet
  facet normal -0.000000e+00 0.000000e+00 1.000000e+00
    outer loop
      vertex -28.2843 -28.2843 0.0000
      vertex -15.3073 -36.9552 0.0000
      vertex 0.0000 0.0000 0.0000
    endloop
  endfacet
  facet normal -0.000000e+00 0.000000e+00 1.000000e+00
    outer loop
      vertex -28.2843 -28.2843 8.0000
      vertex -15.3073 -36.9552 8.0000
      vertex 0.0000 0.0000 8.0000
    endloop
  endfacet
  facet normal 5.555702e-01 8.314696e-01 -0.000000e+00
    outer loop
      vertex -28.2843 -28.2843 0.0000
      vertex -28.2843 -28.2843 8.0000
      vertex -15.3073 -36.9552 8.0000
    endloop
  endfacet
  facet normal 5.555702e-01 8.314696e-01 0.000000e+00
    outer loop
      vertex -28.2843 -28.2843 0.0000
      vertex -15.3073 -36.9552 8.0000
      vertex -15.3073 -36.9552 0.0000
    endloop
  endfacet
  facet normal -0.000000e+00 0.000000e+00 1.000000e+00
    outer loop
      vertex -15.3073 -36.9552 0.0000
      vertex -0.0000 -40.0000 0.0000
      vertex 0.0000 0.0000 0.0000
    endloop
  endfacet
  facet normal -0.000000e+00 0.000000e+00 1.000000e+00
    outer loop
      vertex -15.3073 -36.9552 8.0000
      vertex -0.0000 -40.0000 8.0000
      vertex 0.0000 0.0000 8.0000
    endloop
  endfacet
  facet normal 1.950903e-01 9.807853e-01 -0.000000e+00
    outer loop
      vertex -15.3073 -36.9552 0.0000
      vertex -15.3073 -36.9552 8.0000
      vertex -0.0000 -40.0000 8.0000
    endloop
  endfacet
  facet normal 1.950903e-01 9.807853e-01 0.000000e+00
    outer loop
      vertex -15.3073 -36.9552 0.0000
      vertex -0.0000 -40.0000 8.0000
      vertex -0.0000 -40.0000 0.0000
    endloop
  endfacet
  facet normal 0.000000e+00 0.000000e+00 1.000000e+00
    outer loop
      vertex -0.0000 -40.0000 0.0000
      vertex 15.3073 -36.9552 0.0000
      vertex 0.0000 0.0000 0.0000
    endloop
  endfacet
  facet normal 0.000000e+00 0.000000e+00 1.000000e+00
    outer loop
      vertex -0.0000 -40.0000 8.0000
      vertex 15.3073 -36.9552 8.0000
      vertex 0.0000 0.0000 8.0000
    endloop
  endfacet
  facet normal -1.950903e-01 9.807853e-01 0.000000e+00
    outer loop
      vertex -0.0000 -40.0000 0.0000
      vertex -0.0000 -40.0000 8.0000
      vertex 15.3073 -36.9552 8.0000
    endloop
  endfacet
  facet normal -1.950903e-01 9.807853e-01 0.000000e+00
    outer loop
      vertex -0.0000 -40.0000 0.0000
      vertex 15.3073 -36.9552 8.0000
      vertex 15.3073 -36.9552 0.0000
    endloop
  endfacet
  facet normal 0.000000e+00 -0.000000e+00 1.000000e+00
    outer loop
      vertex 15.3073 -36.9552 0.0000
      vertex 28.2843 -28.2843 0.0000
      vertex 0.0000 0.0000 0.0000
    endloop
  endfacet
  facet normal 0.000000e+00 -0.000000e+00 1.000000e+00
    outer loop
      vertex 15.3073 -36.9552 8.0000
      vertex 28.2843 -28.2843 8.0000
      vertex 0.0000 0.0000 8.0000
    endloop
  endfacet
  facet normal -5.555702e-01 8.314696e-01 0.000000e+00
    outer loop
      vertex 15.3073 -36.9552 0.0000
      vertex 15.3073 -36.9552 8.0000
      vertex 28.2843 -28.2843 8.0000
    endloop
  endfacet
  facet normal -5.555702e-01 8.314696e-01 0.000000e+00
    outer loop
      vertex 15.3073 -36.9552 0.0000
      vertex 28.2843 -28.2843 8.0000
      vertex 28.2843 -28.2843 0.0000
    endloop
  endfacet
  facet normal 0.000000e+00 -0.000000e+00 1.000000e+00
    outer loop
      vertex 28.2843 -28.2843 0.0000
      vertex 36.9552 -15.3073 0.0000
      vertex 0.0000 0.0000 0.0000
    endloop
  endfacet
  facet normal 0.000000e+00 -0.000000e+00 1.000000e+00
    outer loop
      vertex 28.2843 -28.2843 8.0000
      vertex 36.9552 -15.3073 8.0000
      vertex 0.0000 0.0000 8.0000
    endloop
  endfacet
  facet normal -8.314696e-01 5.555702e-01 0.000000e+00
    outer loop
      vertex 28.2843 -28.2843 0.0000
      vertex 28.2843 -28.2843 8.0000
      vertex 36.9552 -15.3073 8.0000
    endloop
  endfacet
  facet normal -8.314696e-01 5.555702e-01 0.000000e+00
    outer loop
      vertex 28.2843 -28.2843 0.0000
      vertex 36.9552 -15.3073 8.0000
      vertex 36.9552 -15.3073 0.0000
    endloop
  endfacet
  facet normal 0.000000e+00 -0.000000e+00 1.000000e+00
    outer loop
      vertex 36.9552 -15.3073 0.0000
      vertex 40.0000 -0.0000 0.0000
      vertex 0.0000 0.0000 0.0000
    endloop
  endfacet
  facet normal 0.000000e+00 -0.000000e+00 1.000000e+00
    outer loop
      vertex 36.9552 -15.3073 8.0000
      vertex 40.0000 -0.0000 8.0000
      vertex 0.0000 0.0000 8.0000
    endloop
  endfacet
  facet normal -9.807853e-01 1.950903e-01 0.000000e+00
    outer loop
      vertex 36.9552 -15.3073 0.0000
      vertex 36.9552 -15.3073 8.0000
      vertex 40.0000 -0.0000 8.0000
    endloop
  endfacet
  facet normal -9.807853e-01 1.950903e-01 0.000000e+00
    outer loop
      vertex 36.9552 -15.3073 0.0000
      vertex 40.0000 -0.0000 8.0000
      vertex 40.0000 -0.0000 0.0000
    endloop
  endfacet
  facet normal 0.000000e+00 0.000000e+00 1.000000e+00
    outer loop
      vertex 18.0000 0.0000 0.0000
      vertex 16.6298 6.8883 0.0000
      vertex 0.0000 0.0000 0.0000
    endloop
  endfacet
  facet normal 0.000000e+00 0.000000e+00 1.000000e+00
    outer loop
      vertex 18.0000 0.0000 12.0000
      vertex 16.6298 6.8883 12.0000
      vertex 0.0000 0.0000 12.0000
    endloop
  endfacet
  facet normal -9.807853e-01 -1.950903e-01 0.000000e+00
    outer loop
      vertex 18.0000 0.0000 0.0000
      vertex 18.0000 0.0000 12.0000
      vertex 16.6298 6.8883 12.0000
    endloop
  endfacet
  facet normal -9.807853e-01 -1.950903e-01 0.000000e+00
    outer loop
      vertex 18.0000 0.0000 0.0000
      vertex 16.6298 6.8883 12.0000
      vertex 16.6298 6.8883 0.0000
    endloop
  endfacet
  facet normal 0.000000e+00 0.000000e+00 1.000000e+00
    outer loop
      vertex 16.6298 6.8883 0.0000
      vertex 12.7279 12.7279 0.0000
      vertex 0.0000 0.0000 0.0000
    endloop
  endfacet
  facet normal 0.000000e+00 0.000000e+00 1.000000e+00
    outer loop
      vertex 16.6298 6.8883 12.0000
      vertex 12.7279 12.7279 12.0000
      vertex 0.0000 0.0000 12.0000
    endloop
  endfacet
  facet normal -8.314696e-01 -5.555702e-01 0.000000e+00
    outer loop
      vertex 16.6298 6.8883 0.0000
      vertex 16.6298 6.8883 12.0000
      vertex 12.7279 12.7279 12.0000
    endloop
  endfacet
  facet normal -8.314696e-01 -5.555702e-01 0.000000e+00
    outer loop
      vertex 16.6298 6.8883 0.0000
      vertex 12.7279 12.7279 12.0000
      vertex 12.7279 12.7279 0.0000
    endloop
  endfacet
  facet normal 0.000000e+00 0.000000e+00 1.000000e+00
    outer loop
      vertex 12.7279 12.7279 0.0000
      vertex 6.8883 16.6298 0.0000
      vertex 0.0000 0.0000 0.0000
    endloop
  endfacet
  facet normal 0.000000e+00 0.000000e+00 1.000000e+00
    outer loop
      vertex 12.7279 12.7279 12.0000
      vertex 6.8883 16.6298 12.0000
      vertex 0.0000 0.0000 12.0000
    endloop
  endfacet
  facet normal -5.555702e-01 -8.314696e-01 0.000000e+00
    outer loop
      vertex 12.7279 12.7279 0.0000
      vertex 12.7279 12.7279 12.0000
      vertex 6.8883 16.6298 12.0000
    endloop
  endfacet
  facet normal -5.555702e-01 -8.314696e-01 0.000000e+00
    outer loop
      vertex 12.7279 12.7279 0.0000
      vertex 6.8883 16.6298 12.0000
      vertex 6.8883 16.6298 0.0000
    endloop
  endfacet
  facet normal 0.000000e+00 0.000000e+00 1.000000e+00
    outer loop
      vertex 6.8883 16.6298 0.0000
      vertex 0.0000 18.0000 0.0000
      vertex 0.0000 0.0000 0.0000
    endloop
  endfacet
  facet normal 0.000000e+00 0.000000e+00 1.000000e+00
    outer loop
      vertex 6.8883 16.6298 12.0000
      vertex 0.0000 18.0000 12.0000
      vertex 0.0000 0.0000 12.0000
    endloop
  endfacet
  facet normal -1.950903e-01 -9.807853e-01 0.000000e+00
    outer loop
      vertex 6.8883 16.6298 0.0000
      vertex 6.8883 16.6298 12.0000
      vertex 0.0000 18.0000 12.0000
    endloop
  endfacet
  facet normal -1.950903e-01 -9.807853e-01 0.000000e+00
    outer loop
      vertex 6.8883 16.6298 0.0000
      vertex 0.0000 18.0000 12.0000
      vertex 0.0000 18.0000 0.0000
    endloop
  endfacet
  facet normal 0.000000e+00 0.000000e+00 1.000000e+00
    outer loop
      vertex 0.0000 18.0000 0.0000
      vertex -6.8883 16.6298 0.0000
      vertex 0.0000 0.0000 0.0000
    endloop
  endfacet
  facet normal 0.000000e+00 0.000000e+00 1.000000e+00
    outer loop
      vertex 0.0000 18.0000 12.0000
      vertex -6.8883 16.6298 12.0000
      vertex 0.0000 0.0000 12.0000
    endloop
  endfacet
  facet normal 1.950903e-01 -9.807853e-01 0.000000e+00
    outer loop
      vertex 0.0000 18.0000 0.0000
      vertex 0.0000 18.0000 12.0000
      vertex -6.8883 16.6298 12.0000
    endloop
  endfacet
  facet normal 1.950903e-01 -9.807853e-01 0.000000e+00
    outer loop
      vertex 0.0000 18.0000 0.0000
      vertex -6.8883 16.6298 12.0000
      vertex -6.8883 16.6298 0.0000
    endloop
  endfacet
  facet normal 0.000000e+00 0.000000e+00 1.000000e+00
    outer loop
      vertex -6.8883 16.6298 0.0000
      vertex -12.7279 12.7279 0.0000
      vertex 0.0000 0.0000 0.0000
    endloop
  endfacet
  facet normal 0.000000e+00 0.000000e+00 1.000000e+00
    outer loop
      vertex -6.8883 16.6298 12.0000
      vertex -12.7279 12.7279 12.0000
      vertex 0.0000 0.0000 12.0000
    endloop
  endfacet
  facet normal 5.555702e-01 -8.314696e-01 0.000000e+00
    outer loop
      vertex -6.8883 16.6298 0.0000
      vertex -6.8883 16.6298 12.0000
      vertex -12.7279 12.7279 12.0000
    endloop
  endfacet
  facet normal 5.555702e-01 -8.314696e-01 0.000000e+00
    outer loop
      vertex -6.8883 16.6298 0.0000
      vertex -12.7279 12.7279 12.0000
      vertex -12.7279 12.7279 0.0000
    endloop
  endfacet
  facet normal 0.000000e+00 0.000000e+00 1.000000e+00
    outer loop
      vertex -12.7279 12.7279 0.0000
      vertex -16.6298 6.8883 0.0000
      vertex 0.0000 0.0000 0.0000
    endloop
  endfacet
  facet normal 0.000000e+00 0.000000e+00 1.000000e+00
    outer loop
      vertex -12.7279 12.7279 12.0000
      vertex -16.6298 6.8883 12.0000
      vertex 0.0000 0.0000 12.0000
    endloop
  endfacet
  facet normal 8.314696e-01 -5.555702e-01 0.000000e+00
    outer loop
      vertex -12.7279 12.7279 0.0000
      vertex -12.7279 12.7279 12.0000
      vertex -16.6298 6.8883 12.0000
    endloop
  endfacet
  facet normal 8.314696e-01 -5.555702e-01 0.000000e+00
    outer loop
      vertex -12.7279 12.7279 0.0000
      vertex -16.6298 6.8883 12.0000
      vertex -16.6298 6.8883 0.0000
    endloop
  endfacet
  facet normal 0.000000e+00 0.000000e+00 1.000000e+00
    outer loop
      vertex -16.6298 6.8883 0.0000
      vertex -18.0000 0.0000 0.0000
      vertex 0.0000 0.0000 0.0000
    endloop
  endfacet
  facet normal 0.000000e+00 0.000000e+00 1.000000e+00
    outer loop
      vertex -16.6298 6.8883 12.0000
      vertex -18.0000 0.0000 12.0000
      vertex 0.0000 0.0000 12.0000
    endloop
  endfacet
  facet normal 9.807853e-01 -1.950903e-01 0.000000e+00
    outer loop
      vertex -16.6298 6.8883 0.0000
      vertex -16.6298 6.8883 12.0000
      vertex -18.0000 0.0000 12.0000
    endloop
  endfacet
  facet normal 9.807853e-01 -1.950903e-01 0.000000e+00
    outer loop
      vertex -16.6298 6.8883 0.0000
      vertex -18.0000 0.0000 12.0000
      vertex -18.0000 0.0000 0.0000
    endloop
  endfacet
  facet normal 0.000000e+00 0.000000e+00 1.000000e+00
    outer loop
      vertex -18.0000 0.0000 0.0000
      vertex -16.6298 -6.8883 0.0000
      vertex 0.0000 0.0000 0.0000
    endloop
  endfacet
  facet normal 0.000000e+00 0.000000e+00 1.000000e+00
    outer loop
      vertex -18.0000 0.0000 12.0000
      vertex -16.6298 -6.8883 12.0000
      vertex 0.0000 0.0000 12.0000
    endloop
  endfacet
  facet normal 9.807853e-01 1.950903e-01 -0.000000e+00
    outer loop
      vertex -18.0000 0.0000 0.0000
      vertex -18.0000 0.0000 12.0000
      vertex -16.6298 -6.8883 12.0000
    endloop
  endfacet
  facet normal 9.807853e-01 1.950903e-01 0.000000e+00
    outer loop
      vertex -18.0000 0.0000 0.0000
      vertex -16.6298 -6.8883 12.0000
      vertex -16.6298 -6.8883 0.0000
    endloop
  endfacet
  facet normal -0.000000e+00 0.000000e+00 1.000000e+00
    outer loop
      vertex -16.6298 -6.8883 0.0000
      vertex -12.7279 -12.7279 0.0000
      vertex 0.0000 0.0000 0.0000
    endloop
  endfacet
  facet normal -0.000000e+00 0.000000e+00 1.000000e+00
    outer loop
      vertex -16.6298 -6.8883 12.0000
      vertex -12.7279 -12.7279 12.0000
      vertex 0.0000 0.0000 12.0000
    endloop
  endfacet
  facet normal 8.314696e-01 5.555702e-01 -0.000000e+00
    outer loop
      vertex -16.6298 -6.8883 0.0000
      vertex -16.6298 -6.8883 12.0000
      vertex -12.7279 -12.7279 12.0000
    endloop
  endfacet
  facet normal 8.314696e-01 5.555702e-01 0.000000e+00
    outer loop
      vertex -16.6298 -6.8883 0.0000
      vertex -12.7279 -12.7279 12.0000
      vertex -12.7279 -12.7279 0.0000
    endloop
  endfacet
  facet normal -0.000000e+00 0.000000e+00 1.000000e+00
    outer loop
      vertex -12.7279 -12.7279 0.0000
      vertex -6.8883 -16.6298 0.0000
      vertex 0.0000 0.0000 0.0000
    endloop
  endfacet
  facet normal -0.000000e+00 0.000000e+00 1.000000e+00
    outer loop
      vertex -12.7279 -12.7279 12.0000
      vertex -6.8883 -16.6298 12.0000
      vertex 0.0000 0.0000 12.0000
    endloop
  endfacet
  facet normal 5.555702e-01 8.314696e-01 -0.000000e+00
    outer loop
      vertex -12.7279 -12.7279 0.0000
      vertex -12.7279 -12.7279 12.0000
      vertex -6.8883 -16.6298 12.0000
    endloop
  endfacet
  facet normal 5.555702e-01 8.314696e-01 0.000000e+00
    outer loop
      vertex -12.7279 -12.7279 0.0000
      vertex -6.8883 -16.6298 12.0000
      vertex -6.8883 -16.6298 0.0000
    endloop
  endfacet
  facet normal -0.000000e+00 0.000000e+00 1.000000e+00
    outer loop
      vertex -6.8883 -16.6298 0.0000
      vertex -0.0000 -18.0000 0.0000
      vertex 0.0000 0.0000 0.0000
    endloop
  endfacet
  facet normal -0.000000e+00 0.000000e+00 1.000000e+00
    outer loop
      vertex -6.8883 -16.6298 12.0000
      vertex -0.0000 -18.0000 12.0000
      vertex 0.0000 0.0000 12.0000
    endloop
  endfacet
  facet normal 1.950903e-01 9.807853e-01 -0.000000e+00
    outer loop
      vertex -6.8883 -16.6298 0.0000
      vertex -6.8883 -16.6298 12.0000
      vertex -0.0000 -18.0000 12.0000
    endloop
  endfacet
  facet normal 1.950903e-01 9.807853e-01 0.000000e+00
    outer loop
      vertex -6.8883 -16.6298 0.0000
      vertex -0.0000 -18.0000 12.0000
      vertex -0.0000 -18.0000 0.0000
    endloop
  endfacet
  facet normal 0.000000e+00 0.000000e+00 1.000000e+00
    outer loop
      vertex -0.0000 -18.0000 0.0000
      vertex 6.8883 -16.6298 0.0000
      vertex 0.0000 0.0000 0.0000
    endloop
  endfacet
  facet normal 0.000000e+00 0.000000e+00 1.000000e+00
    outer loop
      vertex -0.0000 -18.0000 12.0000
      vertex 6.8883 -16.6298 12.0000
      vertex 0.0000 0.0000 12.0000
    endloop
  endfacet
  facet normal -1.950903e-01 9.807853e-01 0.000000e+00
    outer loop
      vertex -0.0000 -18.0000 0.0000
      vertex -0.0000 -18.0000 12.0000
      vertex 6.8883 -16.6298 12.0000
    endloop
  endfacet
  facet normal -1.950903e-01 9.807853e-01 0.000000e+00
    outer loop
      vertex -0.0000 -18.0000 0.0000
      vertex 6.8883 -16.6298 12.0000
      vertex 6.8883 -16.6298 0.0000
    endloop
  endfacet
  facet normal 0.000000e+00 -0.000000e+00 1.000000e+00
    outer loop
      vertex 6.8883 -16.6298 0.0000
      vertex 12.7279 -12.7279 0.0000
      vertex 0.0000 0.0000 0.0000
    endloop
  endfacet
  facet normal 0.000000e+00 -0.000000e+00 1.000000e+00
    outer loop
      vertex 6.8883 -16.6298 12.0000
      vertex 12.7279 -12.7279 12.0000
      vertex 0.0000 0.0000 12.0000
    endloop
  endfacet
  facet normal -5.555702e-01 8.314696e-01 0.000000e+00
    outer loop
      vertex 6.8883 -16.6298 0.0000
      vertex 6.8883 -16.6298 12.0000
      vertex 12.7279 -12.7279 12.0000
    endloop
  endfacet
  facet normal -5.555702e-01 8.314696e-01 0.000000e+00
    outer loop
      vertex 6.8883 -16.6298 0.0000
      vertex 12.7279 -12.7279 12.0000
      vertex 12.7279 -12.7279 0.0000
    endloop
  endfacet
  facet normal 0.000000e+00 -0.000000e+00 1.000000e+00
    outer loop
      vertex 12.7279 -12.7279 0.0000
      vertex 16.6298 -6.8883 0.0000
      vertex 0.0000 0.0000 0.0000
    endloop
  endfacet
  facet normal 0.000000e+00 -0.000000e+00 1.000000e+00
    outer loop
      vertex 12.7279 -12.7279 12.0000
      vertex 16.6298 -6.8883 12.0000
      vertex 0.0000 0.0000 12.0000
    endloop
  endfacet
  facet normal -8.314696e-01 5.555702e-01 0.000000e+00
    outer loop
      vertex 12.7279 -12.7279 0.0000
      vertex 12.7279 -12.7279 12.0000
      vertex 16.6298 -6.8883 12.0000
    endloop
  endfacet
  facet normal -8.314696e-01 5.555702e-01 0.000000e+00
    outer loop
      vertex 12.7279 -12.7279 0.0000
      vertex 16.6298 -6.8883 12.0000
      vertex 16.6298 -6.8883 0.0000
    endloop
  endfacet
  facet normal 0.000000e+00 -0.000000e+00 1.000000e+00
    outer loop
      vertex 16.6298 -6.8883 0.0000
      vertex 18.0000 -0.0000 0.0000
      vertex 0.0000 0.0000 0.0000
    endloop
  endfacet
  facet normal 0.000000e+00 -0.000000e+00 1.000000e+00
    outer loop
      vertex 16.6298 -6.8883 12.0000
      vertex 18.0000 -0.0000 12.0000
      vertex 0.0000 0.0000 12.0000
    endloop
  endfacet
  facet normal -9.807853e-01 1.950903e-01 0.000000e+00
    outer loop
      vertex 16.6298 -6.8883 0.0000
      vertex 16.6298 -6.8883 12.0000
      vertex 18.0000 -0.0000 12.0000
    endloop
  endfacet
  facet normal -9.807853e-01 1.950903e-01 0.000000e+00
    outer loop
      vertex 16.6298 -6.8883 0.0000
      vertex 18.0000 -0.0000 12.0000
      vertex 18.0000 -0.0000 0.0000
    endloop
  endfacet
endsolid MotorMount
