solid PectoralMountRight
  facet normal 0.000000e+00 0.000000e+00 1.000000e+00
    outer loop
      vertex -5.0000 -20.0000 0.0000
      vertex 5.0000 -20.0000 0.0000
      vertex 5.0000 20.0000 0.0000
    endloop
  endfacet
  facet normal 0.000000e+00 0.000000e+00 1.000000e+00
    outer loop
      vertex -5.0000 -20.0000 0.0000
      vertex 5.0000 20.0000 0.0000
      vertex -5.0000 20.0000 0.0000
    endloop
  endfacet
  facet normal 0.000000e+00 0.000000e+00 -1.000000e+00
    outer loop
      vertex -5.0000 -20.0000 25.0000
      vertex 5.0000 20.0000 25.0000
      vertex 5.0000 -20.0000 25.0000
    endloop
  endfacet
  facet normal 0.000000e+00 0.000000e+00 -1.000000e+00
    outer loop
      vertex -5.0000 -20.0000 25.0000
      vertex -5.0000 20.0000 25.0000
      vertex 5.0000 20.0000 25.0000
    endloop
  endfacet
  facet normal 0.000000e+00 1.000000e+00 0.000000e+00
    outer loop
      vertex -5.0000 -20.0000 0.0000
      vertex -5.0000 -20.0000 25.0000
      vertex 5.0000 -20.0000 25.0000
    endloop
  endfacet
  facet normal 0.000000e+00 1.000000e+00 0.000000e+00
    outer loop
      vertex -5.0000 -20.0000 0.0000
      vertex 5.0000 -20.0000 25.0000
      vertex 5.0000 -20.0000 0.0000
    endloop
  endfacet
  facet normal 0.000000e+00 -1.000000e+00 0.000000e+00
    outer loop
      vertex -5.0000 20.0000 0.0000
      vertex 5.0000 20.0000 25.0000
      vertex -5.0000 20.0000 25.0000
    endloop
  endfacet
  facet normal 0.000000e+00 -1.000000e+00 0.000000e+00
    outer loop
      vertex -5.0000 20.0000 0.0000
      vertex 5.0000 20.0000 0.0000
      vertex 5.0000 20.0000 25.0000
    endloop
  endfacet
  facet normal 1.000000e+00 0.000000e+00 0.000000e+00
    outer loop
      vertex -5.0000 -20.0000 0.0000
      vertex -5.0000 20.0000 25.0000
      vertex -5.0000 -20.0000 25.0000
    endloop
  endfacet
  facet normal 1.000000e+00 0.000000e+00 0.000000e+00
    outer loop
      vertex -5.0000 -20.0000 0.0000
      vertex -5.0000 20.0000 0.0000
      vertex -5.0000 20.0000 25.0000
    endloop
  endfacet
  facet normal -1.000000e+00 0.000000e+00 0.000000e+00
    outer loop
      vertex 5.0000 -20.0000 0.0000
      vertex 5.0000 -20.0000 25.0000
      vertex 5.0000 20.0000 25.0000
    endloop
  endfacet
  facet normal -1.000000e+00 0.000000e+00 0.000000e+00
    outer loop
      vertex 5.0000 -20.0000 0.0000
      vertex 5.0000 20.0000 25.0000
      vertex 5.0000 20.0000 0.0000
    endloop
  endfacet
endsolid PectoralMountRight
