solid ServoMountJ1
  facet normal 0.000000e+00 0.000000e+00 1.000000e+00
    outer loop
      vertex -17.500000 -22.500000 -12.500000
      vertex 17.500000 -22.500000 -12.500000
      vertex 17.500000 22.500000 -12.500000
    endloop
  endfacet
  facet normal 0.000000e+00 0.000000e+00 1.000000e+00
    outer loop
      vertex -17.500000 -22.500000 -12.500000
      vertex 17.500000 22.500000 -12.500000
      vertex -17.500000 22.500000 -12.500000
    endloop
  endfacet
  facet normal 0.000000e+00 0.000000e+00 -1.000000e+00
    outer loop
      vertex -17.500000 -22.500000 12.500000
      vertex 17.500000 22.500000 12.500000
      vertex 17.500000 -22.500000 12.500000
    endloop
  endfacet
  facet normal 0.000000e+00 0.000000e+00 -1.000000e+00
    outer loop
      vertex -17.500000 -22.500000 12.500000
      vertex -17.500000 22.500000 12.500000
      vertex 17.500000 22.500000 12.500000
    endloop
  endfacet
  facet normal 0.000000e+00 1.000000e+00 0.000000e+00
    outer loop
      vertex -17.500000 -22.500000 -12.500000
      vertex -17.500000 -22.500000 12.500000
      vertex 17.500000 -22.500000 12.500000
    endloop
  endfacet
  facet normal 0.000000e+00 1.000000e+00 0.000000e+00
    outer loop
      vertex -17.500000 -22.500000 -12.500000
      vertex 17.500000 -22.500000 12.500000
      vertex 17.500000 -22.500000 -12.500000
    endloop
  endfacet
endsolid ServoMountJ1
