<?xml version="1.0" encoding="UTF-8"?>
<svg xmlns="http://www.w3.org/2000/svg" width="1600" height="1000" viewBox="0 0 1600 1000">
<style>
  * { font-family: "Courier New", monospace; }
  .comp  { fill:#F0F4FF; stroke:#1133AA; stroke-width:1.5; }
  .power { fill:#FFF0E8; stroke:#AA4400; stroke-width:1.5; }
  .sensor{ fill:#EFFFEF; stroke:#116611; stroke-width:1.5; }
  .servo { fill:#FFF0FF; stroke:#881188; stroke-width:1.5; }
  .motor { fill:#FFFAEE; stroke:#AA6600; stroke-width:1.5; }
  .lbl   { font-size:12px; font-weight:bold; fill:#111; }
  .pin   { font-size:9px; fill:#333; }
  .net   { font-size:9px; fill:#0033AA; font-style:italic; }
  .val   { font-size:8px; fill:#555; }
  line.pwr  { stroke:#CC2222; stroke-width:1.8; fill:none; }
  line.gndw { stroke:#226622; stroke-width:1.8; fill:none; }
  line.bec  { stroke:#CC6600; stroke-width:1.8; fill:none; }
  line.v33  { stroke:#EE8800; stroke-width:1.8; fill:none; }
  line.sig  { stroke:#2255CC; stroke-width:1.5; fill:none; }
  line.i2c  { stroke:#AA6600; stroke-width:1.5; fill:none; stroke-dasharray:6,3; }
  line.mot  { stroke:#CC4400; stroke-width:2; fill:none; }
  line.srv  { stroke:#881188; stroke-width:1.5; fill:none; }
  circle.junc{ fill:#222; stroke:none; }
</style>
<rect width="1600" height="1000" fill="#FDFCF8"/>
<rect x="40" y="80" width="90" height="110" class="power" rx="4"/>
<text x="85" y="96" text-anchor="middle" class="lbl">LiPo 3S</text>
<text x="85" y="108" text-anchor="middle" class="val">11.1V 2200mAh</text>
<text x="85" y="125" text-anchor="middle" class="val">XT60</text>
<text x="125" y="114" text-anchor="end" class="pin">B+</text>
<text x="125" y="164" text-anchor="end" class="pin">B−</text>
<rect x="200" y="50" width="160" height="170" class="comp" rx="4"/>
<text x="280" y="66" text-anchor="middle" class="lbl">ESC 20A</text>
<text x="280" y="78" text-anchor="middle" class="val">Hobbywing Platinum</text>
<text x="280" y="93" text-anchor="middle" class="val">BEC 5V/3A</text>
<line x1="200" y1="90" x2="182" y2="90" class="sig"/>
<text x="180" y="94" text-anchor="end" class="pin">VIN+</text>
<line x1="200" y1="120" x2="182" y2="120" class="sig"/>
<text x="180" y="124" text-anchor="end" class="pin">GND</text>
<line x1="200" y1="180" x2="182" y2="180" class="sig"/>
<text x="180" y="184" text-anchor="end" class="pin">PWM IN</text>
<line x1="360" y1="90" x2="378" y2="90" class="sig"/>
<text x="380" y="94" text-anchor="start" class="pin">BEC 5V</text>
<line x1="360" y1="120" x2="378" y2="120" class="sig"/>
<text x="380" y="124" text-anchor="start" class="pin">BEC GND</text>
<line x1="360" y1="150" x2="378" y2="150" class="sig"/>
<text x="380" y="154" text-anchor="start" class="pin">Ph A</text>
<line x1="360" y1="170" x2="378" y2="170" class="sig"/>
<text x="380" y="174" text-anchor="start" class="pin">Ph B</text>
<line x1="360" y1="190" x2="378" y2="190" class="sig"/>
<text x="380" y="194" text-anchor="start" class="pin">Ph C</text>
<rect x="500" y="60" width="130" height="100" class="motor" rx="4"/>
<text x="565" y="76" text-anchor="middle" class="lbl">BL Motor</text>
<text x="565" y="88" text-anchor="middle" class="val">KV=900 Outrunner</text>
<text x="565" y="115" text-anchor="middle" class="val">Getriebe 40:1</text>
<line x1="500" y1="90" x2="482" y2="90" class="mot"/>
<text x="480" y="94" text-anchor="end" class="pin">Ph A</text>
<line x1="500" y1="110" x2="482" y2="110" class="mot"/>
<text x="480" y="114" text-anchor="end" class="pin">Ph B</text>
<line x1="500" y1="130" x2="482" y2="130" class="mot"/>
<text x="480" y="134" text-anchor="end" class="pin">Ph C</text>
<line x1="630" y1="110" x2="665" y2="110" stroke="#666" stroke-width="3" fill="none"/>
<text x="670" y="106" text-anchor="start" class="val" font-size="8px">→ Nocken- welle</text>
<rect x="600" y="280" width="180" height="300" class="comp" rx="4"/>
<text x="690" y="296" text-anchor="middle" class="lbl">ESP32 DevKit V1</text>
<text x="690" y="308" text-anchor="middle" class="val">240MHz WiFi/BT</text>
<line x1="600" y1="320" x2="582" y2="320" class="sig"/>
<text x="580" y="324" text-anchor="end" class="pin">VIN</text>
<line x1="600" y1="350" x2="582" y2="350" class="sig"/>
<text x="580" y="354" text-anchor="end" class="pin">GND</text>
<line x1="600" y1="420" x2="582" y2="420" class="sig"/>
<text x="580" y="424" text-anchor="end" class="pin">GPIO25</text>
<line x1="600" y1="480" x2="582" y2="480" class="sig"/>
<text x="580" y="484" text-anchor="end" class="pin">GPIO21 SDA</text>
<line x1="600" y1="510" x2="582" y2="510" class="sig"/>
<text x="580" y="514" text-anchor="end" class="pin">GPIO22 SCL</text>
<line x1="780" y1="320" x2="798" y2="320" class="sig"/>
<text x="800" y="324" text-anchor="start" class="pin">3V3</text>
<rect x="250" y="330" width="160" height="220" class="comp" rx="4"/>
<text x="330" y="346" text-anchor="middle" class="lbl">PCA9685</text>
<text x="330" y="358" text-anchor="middle" class="val">I2C 0x40</text>
<line x1="410" y1="370" x2="428" y2="370" class="sig"/>
<text x="430" y="374" text-anchor="start" class="pin">VCC</text>
<line x1="410" y1="400" x2="428" y2="400" class="sig"/>
<text x="430" y="404" text-anchor="start" class="pin">GND</text>
<line x1="410" y1="440" x2="428" y2="440" class="sig"/>
<text x="430" y="444" text-anchor="start" class="pin">SDA</text>
<line x1="410" y1="470" x2="428" y2="470" class="sig"/>
<text x="430" y="474" text-anchor="start" class="pin">SCL</text>
<line x1="410" y1="510" x2="428" y2="510" class="sig"/>
<text x="430" y="514" text-anchor="start" class="pin">V+</text>
<line x1="250" y1="450" x2="232" y2="450" class="sig"/>
<text x="230" y="454" text-anchor="end" class="pin">CH2</text>
<line x1="250" y1="480" x2="232" y2="480" class="sig"/>
<text x="230" y="484" text-anchor="end" class="pin">CH3</text>
<line x1="250" y1="510" x2="232" y2="510" class="sig"/>
<text x="230" y="514" text-anchor="end" class="pin">CH4</text>
<rect x="860" y="200" width="160" height="120" class="sensor" rx="4"/>
<text x="940" y="216" text-anchor="middle" class="lbl">MS5837-30BA</text>
<text x="940" y="228" text-anchor="middle" class="val">Depth 0x76</text>
<line x1="860" y1="230" x2="842" y2="230" class="sig"/>
<text x="840" y="234" text-anchor="end" class="pin">VCC</text>
<line x1="860" y1="255" x2="842" y2="255" class="sig"/>
<text x="840" y="259" text-anchor="end" class="pin">GND</text>
<line x1="860" y1="280" x2="842" y2="280" class="sig"/>
<text x="840" y="284" text-anchor="end" class="pin">SDA</text>
<line x1="860" y1="300" x2="842" y2="300" class="sig"/>
<text x="840" y="304" text-anchor="end" class="pin">SCL</text>
<rect x="860" y="390" width="160" height="120" class="sensor" rx="4"/>
<text x="940" y="406" text-anchor="middle" class="lbl">MPU-6050</text>
<text x="940" y="418" text-anchor="middle" class="val">IMU 0x68</text>
<line x1="860" y1="420" x2="842" y2="420" class="sig"/>
<text x="840" y="424" text-anchor="end" class="pin">VCC</text>
<line x1="860" y1="445" x2="842" y2="445" class="sig"/>
<text x="840" y="449" text-anchor="end" class="pin">GND</text>
<line x1="860" y1="470" x2="842" y2="470" class="sig"/>
<text x="840" y="474" text-anchor="end" class="pin">SDA</text>
<line x1="860" y1="490" x2="842" y2="490" class="sig"/>
<text x="840" y="494" text-anchor="end" class="pin">SCL</text>
<rect x="50" y="700" width="130" height="90" class="servo" rx="4"/>
<text x="115" y="716" text-anchor="middle" class="lbl">Servo BFL</text>
<text x="115" y="728" text-anchor="middle" class="val">MG90S IP67</text>
<line x1="90" y1="700" x2="90" y2="682" class="srv"/>
<text x="90" y="678" text-anchor="middle" class="pin">SIG</text>
<line x1="130" y1="700" x2="130" y2="682" class="bec"/>
<text x="130" y="678" text-anchor="middle" class="pin">VCC</text>
<g>
  <line x1="165" y1="790" x2="165" y2="804" class="gndw"/>
  <line x1="153" y1="804" x2="177" y2="804" class="gndw"/>
  <line x1="158"  y1="810" x2="172"  y2="810" class="gndw"/>
  <line x1="162"  y1="816" x2="168"  y2="816" class="gndw"/>
</g>
<rect x="250" y="700" width="130" height="90" class="servo" rx="4"/>
<text x="315" y="716" text-anchor="middle" class="lbl">Servo BFR</text>
<text x="315" y="728" text-anchor="middle" class="val">MG90S IP67</text>
<line x1="290" y1="700" x2="290" y2="682" class="srv"/>
<text x="290" y="678" text-anchor="middle" class="pin">SIG</text>
<line x1="330" y1="700" x2="330" y2="682" class="bec"/>
<text x="330" y="678" text-anchor="middle" class="pin">VCC</text>
<g>
  <line x1="365" y1="790" x2="365" y2="804" class="gndw"/>
  <line x1="353" y1="804" x2="377" y2="804" class="gndw"/>
  <line x1="358"  y1="810" x2="372"  y2="810" class="gndw"/>
  <line x1="362"  y1="816" x2="368"  y2="816" class="gndw"/>
</g>
<rect x="450" y="700" width="130" height="90" class="servo" rx="4"/>
<text x="515" y="716" text-anchor="middle" class="lbl">Servo BAL</text>
<text x="515" y="728" text-anchor="middle" class="val">MG996R IP67</text>
<line x1="490" y1="700" x2="490" y2="682" class="srv"/>
<text x="490" y="678" text-anchor="middle" class="pin">SIG</text>
<line x1="530" y1="700" x2="530" y2="682" class="bec"/>
<text x="530" y="678" text-anchor="middle" class="pin">VCC</text>
<g>
  <line x1="565" y1="790" x2="565" y2="804" class="gndw"/>
  <line x1="553" y1="804" x2="577" y2="804" class="gndw"/>
  <line x1="558"  y1="810" x2="572"  y2="810" class="gndw"/>
  <line x1="562"  y1="816" x2="568"  y2="816" class="gndw"/>
</g>
<line x1="130" y1="110" x2="180" y2="110" class="pwr"/>
<line x1="180" y1="110" x2="180" y2="90" class="pwr"/>
<line x1="180" y1="90" x2="200" y2="90" class="pwr"/>
<line x1="130" y1="160" x2="185" y2="160" class="gndw"/>
<line x1="185" y1="160" x2="185" y2="120" class="gndw"/>
<line x1="185" y1="120" x2="200" y2="120" class="gndw"/>
<g>
  <line x1="130" y1="165" x2="130" y2="179" class="gndw"/>
  <line x1="118" y1="179" x2="142" y2="179" class="gndw"/>
  <line x1="123"  y1="185" x2="137"  y2="185" class="gndw"/>
  <line x1="127"  y1="191" x2="133"  y2="191" class="gndw"/>
</g>
<line x1="360" y1="120" x2="390" y2="120" class="gndw"/>
<g>
  <line x1="390" y1="120" x2="390" y2="134" class="gndw"/>
  <line x1="378" y1="134" x2="402" y2="134" class="gndw"/>
  <line x1="383"  y1="140" x2="397"  y2="140" class="gndw"/>
  <line x1="387"  y1="146" x2="393"  y2="146" class="gndw"/>
</g>
<line x1="360" y1="90" x2="390" y2="90" class="bec"/>
<line x1="390" y1="90" x2="390" y2="22" class="bec"/>
<line x1="390" y1="22" x2="560" y2="22" class="bec"/>
<line x1="560" y1="22" x2="560" y2="320" class="bec"/>
<line x1="560" y1="320" x2="600" y2="320" class="bec"/>
<circle cx="560" cy="22" r="4" class="junc"/>
<line x1="450" y1="22" x2="450" y2="370" class="bec"/>
<line x1="450" y1="370" x2="410" y2="370" class="bec"/>
<circle cx="450" cy="22" r="4" class="junc"/>
<line x1="40" y1="22" x2="40" y2="700" class="bec"/>
<circle cx="40" cy="22" r="4" class="junc"/>
<line x1="40" y1="700" x2="130" y2="700" class="bec"/>
<line x1="40" y1="700" x2="40" y2="700" class="bec"/>
<line x1="40" y1="700" x2="330" y2="700" class="bec"/>
<line x1="40" y1="700" x2="40" y2="700" class="bec"/>
<line x1="40" y1="700" x2="530" y2="700" class="bec"/>
<circle cx="40" cy="700" r="4" class="junc"/>
<line x1="410" y1="510" x2="440" y2="510" class="bec"/>
<line x1="440" y1="510" x2="440" y2="22" class="bec"/>
<circle cx="440" cy="22" r="4" class="junc"/>
<rect x="298" y="20" width="53" height="13" fill="white" stroke="#0033AA" stroke-width="0.5" rx="2"/>
<text x="300" y="30" text-anchor="start" class="net" font-size="9">+5V BEC</text>
<g>
  <line x1="582" y1="350" x2="582" y2="364" class="gndw"/>
  <line x1="570" y1="364" x2="594" y2="364" class="gndw"/>
  <line x1="575"  y1="370" x2="589"  y2="370" class="gndw"/>
  <line x1="579"  y1="376" x2="585"  y2="376" class="gndw"/>
</g>
<line x1="600" y1="350" x2="582" y2="350" class="gndw"/>
<line x1="410" y1="400" x2="450" y2="400" class="gndw"/>
<g>
  <line x1="450" y1="400" x2="450" y2="414" class="gndw"/>
  <line x1="438" y1="414" x2="462" y2="414" class="gndw"/>
  <line x1="443"  y1="420" x2="457"  y2="420" class="gndw"/>
  <line x1="447"  y1="426" x2="453"  y2="426" class="gndw"/>
</g>
<line x1="860" y1="255" x2="830" y2="255" class="gndw"/>
<g>
  <line x1="830" y1="255" x2="830" y2="269" class="gndw"/>
  <line x1="818" y1="269" x2="842" y2="269" class="gndw"/>
  <line x1="823"  y1="275" x2="837"  y2="275" class="gndw"/>
  <line x1="827"  y1="281" x2="833"  y2="281" class="gndw"/>
</g>
<line x1="860" y1="445" x2="830" y2="445" class="gndw"/>
<g>
  <line x1="830" y1="445" x2="830" y2="459" class="gndw"/>
  <line x1="818" y1="459" x2="842" y2="459" class="gndw"/>
  <line x1="823"  y1="465" x2="837"  y2="465" class="gndw"/>
  <line x1="827"  y1="471" x2="833"  y2="471" class="gndw"/>
</g>
<line x1="780" y1="320" x2="845" y2="320" class="v33"/>
<line x1="845" y1="320" x2="845" y2="230" class="v33"/>
<line x1="845" y1="230" x2="860" y2="230" class="v33"/>
<line x1="845" y1="420" x2="860" y2="420" class="v33"/>
<circle cx="845" cy="420" r="4" class="junc"/>
<g>
  <line x1="845" y1="230" x2="845" y2="216" class="v33"/>
  <line x1="831" y1="216" x2="859" y2="216" class="v33"/>
  <text x="845" y="212" text-anchor="middle" class="net" font-size="9">+3.3V</text>
</g>
<line x1="600" y1="420" x2="560" y2="420" class="sig"/>
<line x1="560" y1="420" x2="560" y2="490" class="sig"/>
<line x1="560" y1="490" x2="160" y2="490" class="sig"/>
<line x1="160" y1="490" x2="160" y2="180" class="sig"/>
<line x1="160" y1="180" x2="200" y2="180" class="sig"/>
<rect x="498" y="477" width="109" height="13" fill="white" stroke="#0033AA" stroke-width="0.5" rx="2"/>
<text x="500" y="487" text-anchor="start" class="net" font-size="9">GPIO25 PWM 50Hz</text>
<line x1="600" y1="480" x2="550" y2="480" class="i2c"/>
<line x1="550" y1="480" x2="550" y2="620" class="i2c"/>
<line x1="550" y1="440" x2="410" y2="440" class="i2c"/>
<circle cx="550" cy="440" r="4" class="junc"/>
<line x1="550" y1="620" x2="855" y2="620" class="i2c"/>
<line x1="855" y1="620" x2="855" y2="280" class="i2c"/>
<line x1="855" y1="280" x2="860" y2="280" class="i2c"/>
<line x1="855" y1="470" x2="860" y2="470" class="i2c"/>
<circle cx="855" cy="470" r="4" class="junc"/>
<circle cx="550" cy="620" r="4" class="junc"/>
<rect x="553" y="607" width="25" height="13" fill="white" stroke="#0033AA" stroke-width="0.5" rx="2"/>
<text x="555" y="617" text-anchor="start" class="net" font-size="9">SDA</text>
<line x1="600" y1="510" x2="540" y2="510" class="i2c"/>
<line x1="540" y1="510" x2="540" y2="645" class="i2c"/>
<line x1="540" y1="470" x2="410" y2="470" class="i2c"/>
<circle cx="540" cy="470" r="4" class="junc"/>
<line x1="540" y1="645" x2="854" y2="645" class="i2c"/>
<line x1="854" y1="645" x2="854" y2="300" class="i2c"/>
<line x1="854" y1="300" x2="860" y2="300" class="i2c"/>
<line x1="854" y1="490" x2="860" y2="490" class="i2c"/>
<circle cx="854" cy="490" r="4" class="junc"/>
<circle cx="540" cy="645" r="4" class="junc"/>
<rect x="543" y="632" width="25" height="13" fill="white" stroke="#0033AA" stroke-width="0.5" rx="2"/>
<text x="545" y="642" text-anchor="start" class="net" font-size="9">SCL</text>
<line x1="360" y1="150" x2="480" y2="150" class="mot"/>
<line x1="480" y1="150" x2="500" y2="90" class="mot"/>
<line x1="360" y1="170" x2="480" y2="170" class="mot"/>
<line x1="480" y1="170" x2="500" y2="110" class="mot"/>
<line x1="360" y1="190" x2="480" y2="190" class="mot"/>
<line x1="480" y1="190" x2="500" y2="130" class="mot"/>
<line x1="250" y1="450" x2="30" y2="450" class="srv"/>
<line x1="30" y1="450" x2="30" y2="700" class="srv"/>
<line x1="30" y1="700" x2="90" y2="700" class="srv"/>
<line x1="250" y1="480" x2="25" y2="480" class="srv"/>
<line x1="25" y1="480" x2="25" y2="700" class="srv"/>
<line x1="25" y1="700" x2="290" y2="700" class="srv"/>
<line x1="250" y1="510" x2="20" y2="510" class="srv"/>
<line x1="20" y1="510" x2="20" y2="700" class="srv"/>
<line x1="20" y1="700" x2="490" y2="700" class="srv"/>
<rect x="1050" y="150" width="520" height="480" class="comp" rx="4"/>
<text x="1310" y="175" text-anchor="middle" class="lbl">LEGENDE</text>
<line x1="1070" y1="205" x2="1130" y2="205" stroke="#CC2222" stroke-width="1.8" fill="none" />
<text x="1140" y="209" text-anchor="start" class="pin">11.1V (LiPo)</text>
<line x1="1070" y1="235" x2="1130" y2="235" stroke="#CC6600" stroke-width="1.8" fill="none" />
<text x="1140" y="239" text-anchor="start" class="pin">+5V BEC (ESC out)</text>
<line x1="1070" y1="265" x2="1130" y2="265" stroke="#EE8800" stroke-width="1.8" fill="none" />
<text x="1140" y="269" text-anchor="start" class="pin">+3.3V (ESP32)</text>
<line x1="1070" y1="295" x2="1130" y2="295" stroke="#226622" stroke-width="1.8" fill="none" />
<text x="1140" y="299" text-anchor="start" class="pin">GND</text>
<line x1="1070" y1="325" x2="1130" y2="325" stroke="#2255CC" stroke-width="1.8" fill="none" />
<text x="1140" y="329" text-anchor="start" class="pin">Signal / PWM</text>
<line x1="1070" y1="355" x2="1130" y2="355" stroke="#AA6600" stroke-width="1.8" fill="none" stroke-dasharray="6,3"/>
<text x="1140" y="359" text-anchor="start" class="pin">I2C (SDA/SCL) gestrichelt</text>
<line x1="1070" y1="385" x2="1130" y2="385" stroke="#CC4400" stroke-width="1.8" fill="none" />
<text x="1140" y="389" text-anchor="start" class="pin">Motor 3-Phasen</text>
<line x1="1070" y1="415" x2="1130" y2="415" stroke="#881188" stroke-width="1.8" fill="none" />
<text x="1140" y="419" text-anchor="start" class="pin">Servo-Signal (PCA9685)</text>
<text x="1060" y="460" text-anchor="start" class="lbl" font-size="11px">I2C Adressen:</text>
<text x="1060" y="480" text-anchor="start" class="pin">0x40  PCA9685</text>
<text x="1060" y="496" text-anchor="start" class="pin">0x68  MPU-6050</text>
<text x="1060" y="512" text-anchor="start" class="pin">0x76  MS5837</text>
<text x="1060" y="548" text-anchor="start" class="lbl" font-size="11px">GPIO Belegung:</text>
<text x="1060" y="566" text-anchor="start" class="pin">GPIO21  →  SDA I2C</text>
<text x="1060" y="582" text-anchor="start" class="pin">GPIO22  →  SCL I2C</text>
<text x="1060" y="598" text-anchor="start" class="pin">GPIO25  →  PWM ESC 50Hz</text>
<text x="1060" y="614" text-anchor="start" class="pin">VIN  →  5V von BEC</text>
<text x="1060" y="630" text-anchor="start" class="pin">GND  →  Masse</text>
<text x="1060" y="646" text-anchor="start" class="pin">3V3  →  → Sensoren</text>
<g>
  <line x1="1100" y1="674" x2="1100" y2="688" class="gndw"/>
  <line x1="1088" y1="688" x2="1112" y2="688" class="gndw"/>
  <line x1="1093"  y1="694" x2="1107"  y2="694" class="gndw"/>
  <line x1="1097"  y1="700" x2="1103"  y2="700" class="gndw"/>
</g>
<text x="1130" y="688" text-anchor="start" class="pin">GND Symbol</text>
<g>
  <line x1="1100" y1="724" x2="1100" y2="710" class="bec"/>
  <line x1="1086" y1="710" x2="1114" y2="710" class="bec"/>
  <text x="1100" y="706" text-anchor="middle" class="net" font-size="9">+VCC</text>
</g>
<text x="1130" y="710" text-anchor="start" class="pin">VCC Symbol</text>
<rect x="0" y="960" width="1600" height="40" class="comp" rx="4"/>
<text x="800" y="984" text-anchor="middle" class="lbl">Biomimetic Shark Robot — Schaltplan v2.0  |  Alle Verbindungen Punkt-zu-Punkt  |  Fritzing-kompatibel  |  Rev 2.0 · 2026-06</text>
</svg>