<?xml version="1.0" encoding="UTF-8"?>
<svg xmlns="http://www.w3.org/2000/svg" width="1400" height="920" viewBox="0 0 1400 920">
<style>
  text { font-family: monospace; }
  .lbl  { font-size:11px; fill:#111; }
  .pin  { font-size: 9px; fill:#333; }
  .net  { font-size: 9px; fill:#003399; font-style:italic; }
  .comp { fill:#EDF2FF; stroke:#2244AA; stroke-width:1.5; }
  .pcomp{ fill:#FFF3E0; stroke:#CC6600; stroke-width:1.5; }
  .sens { fill:#E8F8F0; stroke:#1A7A40; stroke-width:1.5; }
  .serv { fill:#FAF0FF; stroke:#773399; stroke-width:1.5; }
  .mot  { fill:#FFF0E0; stroke:#994400; stroke-width:1.5; }
  .pwr11{ stroke:#CC0000; stroke-width:2.0; fill:none; }
  .pwr5 { stroke:#CC6600; stroke-width:1.8; fill:none; }
  .pwr33{ stroke:#CC0066; stroke-width:1.5; fill:none; }
  .gnd  { stroke:#006600; stroke-width:2.0; fill:none; }
  .sig  { stroke:#0033CC; stroke-width:1.5; fill:none; }
  .i2c  { stroke:#886600; stroke-width:1.5; fill:none; }
  .mot3 { stroke:#994400; stroke-width:2.0; fill:none; }
  .junc { fill:#222; stroke:none; }
  .symv { fill:#CC6600; stroke:none; }   /* +5V tri */
  .sym3 { fill:#CC0066; stroke:none; }   /* +3V3 tri */
  .symg { fill:#006600; stroke:none; }   /* GND tri */
  .sym1 { fill:#CC0000; stroke:none; }   /* +11V tri */
</style>

<rect width="1400" height="920" fill="#FDFCF8"/>
<rect x="0" y="880" width="1400" height="40" fill="#EEEEEE" stroke="#AAAAAA" stroke-width="0.5"/>
<text x="700" y="904" text-anchor="middle" font-size="13" font-weight="bold" font-family="monospace">Biomimetic Shark Robot — Point-to-Point Schaltplan v2.0 | Rev. 2026-06</text>
<rect x="40" y="60" width="100" height="75" class="pcomp" rx="4"/>
<text x="90" y="75" text-anchor="middle" class="lbl">LiPo 3S 11.1V</text>
<text x="90" y="90" text-anchor="middle" class="pin">2200mAh XT60</text>
<line x1="140" y1="80" x2="155" y2="80" class="pwr11"/>
<text x="158" y="84" text-anchor="start" class="pin">B+</text>
<line x1="140" y1="115" x2="155" y2="115" class="gnd"/>
<text x="158" y="119" text-anchor="start" class="pin">B−</text>
<rect x="230" y="40" width="130" height="155" class="comp" rx="4"/>
<text x="295" y="55" text-anchor="middle" class="lbl">ESC 20A</text>
<text x="295" y="68" text-anchor="middle" class="pin">Hobbywing</text>
<line x1="215" y1="70" x2="230" y2="70" class="pwr11"/>
<text x="211" y="74" text-anchor="end" class="pin">VIN+</text>
<line x1="215" y1="100" x2="230" y2="100" class="gnd"/>
<text x="211" y="104" text-anchor="end" class="pin">GND</text>
<line x1="215" y1="145" x2="230" y2="145" class="sig"/>
<text x="211" y="149" text-anchor="end" class="pin">PWM IN</text>
<line x1="360" y1="70" x2="375" y2="70" class="pwr5"/>
<text x="379" y="74" text-anchor="start" class="pin">BEC 5V</text>
<line x1="360" y1="100" x2="375" y2="100" class="gnd"/>
<text x="379" y="104" text-anchor="start" class="pin">BEC GND</text>
<line x1="360" y1="145" x2="375" y2="145" class="mot3"/>
<text x="379" y="149" text-anchor="start" class="pin">Ph.A</text>
<line x1="360" y1="160" x2="375" y2="160" class="mot3"/>
<text x="379" y="164" text-anchor="start" class="pin">Ph.B</text>
<line x1="360" y1="175" x2="375" y2="175" class="mot3"/>
<text x="379" y="179" text-anchor="start" class="pin">Ph.C</text>
<rect x="450" y="55" width="115" height="100" class="mot" rx="4"/>
<text x="507" y="73" text-anchor="middle" class="lbl">BL Motor</text>
<text x="507" y="87" text-anchor="middle" class="pin">KV=900 20W</text>
<line x1="435" y1="85" x2="450" y2="85" class="mot3"/>
<text x="431" y="89" text-anchor="end" class="pin">Ph.A</text>
<line x1="435" y1="105" x2="450" y2="105" class="mot3"/>
<text x="431" y="109" text-anchor="end" class="pin">Ph.B</text>
<line x1="435" y1="125" x2="450" y2="125" class="mot3"/>
<text x="431" y="129" text-anchor="end" class="pin">Ph.C</text>
<rect x="600" y="155" width="155" height="355" class="comp" rx="4"/>
<text x="677" y="173" text-anchor="middle" class="lbl">ESP32 DevKit V1</text>
<text x="677" y="187" text-anchor="middle" class="pin">WiFi / BT / 240MHz</text>
<line x1="585" y1="195" x2="600" y2="195" class="pwr5"/>
<text x="581" y="199" text-anchor="end" class="pin">VIN</text>
<line x1="585" y1="220" x2="600" y2="220" class="gnd"/>
<text x="581" y="224" text-anchor="end" class="pin">GND</text>
<line x1="585" y1="245" x2="600" y2="245" class="pwr33"/>
<text x="581" y="249" text-anchor="end" class="pin">3V3</text>
<line x1="585" y1="305" x2="600" y2="305" class="i2c"/>
<text x="581" y="309" text-anchor="end" class="pin">GPIO21 SDA</text>
<line x1="585" y1="330" x2="600" y2="330" class="i2c"/>
<text x="581" y="334" text-anchor="end" class="pin">GPIO22 SCL</text>
<line x1="755" y1="355" x2="770" y2="355" class="sig"/>
<text x="774" y="359" text-anchor="start" class="pin">GPIO25</text>
<rect x="190" y="335" width="155" height="200" class="comp" rx="4"/>
<text x="267" y="353" text-anchor="middle" class="lbl">PCA9685</text>
<text x="267" y="367" text-anchor="middle" class="pin">I2C Servo Driver</text>
<text x="267" y="380" text-anchor="middle" class="pin">Addr: 0x40</text>
<line x1="345" y1="365" x2="360" y2="365" class="pwr5"/>
<text x="364" y="369" text-anchor="start" class="pin">VCC 5V</text>
<line x1="345" y1="390" x2="360" y2="390" class="gnd"/>
<text x="364" y="394" text-anchor="start" class="pin">GND</text>
<line x1="345" y1="415" x2="360" y2="415" class="i2c"/>
<text x="364" y="419" text-anchor="start" class="pin">SDA</text>
<line x1="345" y1="440" x2="360" y2="440" class="i2c"/>
<text x="364" y="444" text-anchor="start" class="pin">SCL</text>
<line x1="175" y1="470" x2="190" y2="470" class="sig"/>
<text x="171" y="474" text-anchor="end" class="pin">CH2</text>
<line x1="175" y1="492" x2="190" y2="492" class="sig"/>
<text x="171" y="496" text-anchor="end" class="pin">CH3</text>
<line x1="175" y1="514" x2="190" y2="514" class="sig"/>
<text x="171" y="518" text-anchor="end" class="pin">CH4</text>
<rect x="820" y="155" width="145" height="120" class="sens" rx="4"/>
<text x="892" y="170" text-anchor="middle" class="lbl">MS5837-30BA</text>
<text x="892" y="183" text-anchor="middle" class="pin">Depth Sensor</text>
<text x="892" y="196" text-anchor="middle" class="pin">0x76 / 0–300m</text>
<line x1="805" y1="180" x2="820" y2="180" class="pwr33"/>
<text x="801" y="184" text-anchor="end" class="pin">VCC 3V3</text>
<line x1="805" y1="205" x2="820" y2="205" class="gnd"/>
<text x="801" y="209" text-anchor="end" class="pin">GND</text>
<line x1="805" y1="230" x2="820" y2="230" class="i2c"/>
<text x="801" y="234" text-anchor="end" class="pin">SDA</text>
<line x1="805" y1="255" x2="820" y2="255" class="i2c"/>
<text x="801" y="259" text-anchor="end" class="pin">SCL</text>
<rect x="820" y="335" width="145" height="120" class="sens" rx="4"/>
<text x="892" y="350" text-anchor="middle" class="lbl">MPU-6050</text>
<text x="892" y="363" text-anchor="middle" class="pin">IMU 6-DOF</text>
<text x="892" y="376" text-anchor="middle" class="pin">0x68 / Gyro+Accel</text>
<line x1="805" y1="360" x2="820" y2="360" class="pwr33"/>
<text x="801" y="364" text-anchor="end" class="pin">VCC 3V3</text>
<line x1="805" y1="385" x2="820" y2="385" class="gnd"/>
<text x="801" y="389" text-anchor="end" class="pin">GND</text>
<line x1="805" y1="410" x2="820" y2="410" class="i2c"/>
<text x="801" y="414" text-anchor="end" class="pin">SDA</text>
<line x1="805" y1="435" x2="820" y2="435" class="i2c"/>
<text x="801" y="439" text-anchor="end" class="pin">SCL</text>
<rect x="30" y="535" width="125" height="75" class="serv" rx="4"/>
<text x="92" y="553" text-anchor="middle" class="lbl">Servo BFL</text>
<text x="92" y="567" text-anchor="middle" class="pin">MG90S IP67</text>
<rect x="30" y="645" width="125" height="75" class="serv" rx="4"/>
<text x="92" y="663" text-anchor="middle" class="lbl">Servo BFR</text>
<text x="92" y="677" text-anchor="middle" class="pin">MG90S IP67</text>
<rect x="30" y="755" width="125" height="75" class="serv" rx="4"/>
<text x="92" y="773" text-anchor="middle" class="lbl">Servo Ballast</text>
<text x="92" y="787" text-anchor="middle" class="pin">MG996R IP67</text>
<line x1="155" y1="553" x2="170" y2="553" class="sig"/>
<text x="174" y="557" text-anchor="start" class="pin">SIG</text>
<line x1="155" y1="573" x2="170" y2="573" class="pwr5"/>
<text x="174" y="577" text-anchor="start" class="pin">VCC</text>
<line x1="155" y1="593" x2="170" y2="593" class="gnd"/>
<text x="174" y="597" text-anchor="start" class="pin">GND</text>
<line x1="155" y1="663" x2="170" y2="663" class="sig"/>
<text x="174" y="667" text-anchor="start" class="pin">SIG</text>
<line x1="155" y1="683" x2="170" y2="683" class="pwr5"/>
<text x="174" y="687" text-anchor="start" class="pin">VCC</text>
<line x1="155" y1="703" x2="170" y2="703" class="gnd"/>
<text x="174" y="707" text-anchor="start" class="pin">GND</text>
<line x1="155" y1="773" x2="170" y2="773" class="sig"/>
<text x="174" y="777" text-anchor="start" class="pin">SIG</text>
<line x1="155" y1="793" x2="170" y2="793" class="pwr5"/>
<text x="174" y="797" text-anchor="start" class="pin">VCC</text>
<line x1="155" y1="813" x2="170" y2="813" class="gnd"/>
<text x="174" y="817" text-anchor="start" class="pin">GND</text>
<polyline points="140,80 200,80 200,70 215,70" class="pwr11" fill="none"/>
<polyline points="140,115 210,115 210,100 215,100" class="gnd" fill="none"/>
<polyline points="375,145 405,145 405,85 435,85" class="mot3" fill="none"/>
<polyline points="375,160 405,160 405,105 435,105" class="mot3" fill="none"/>
<polyline points="375,175 405,175 405,125 435,125" class="mot3" fill="none"/>
<polyline points="375,70 555,70 555,195 585,195" class="pwr5" fill="none"/>
<circle cx="555" cy="70" r="4" class="junc"/>
<polyline points="555,70 555,365 360,365" class="pwr5" fill="none"/>
<circle cx="555" cy="365" r="4" class="junc"/>
<polyline points="555,365 555,573 170,573" class="pwr5" fill="none"/>
<circle cx="555" cy="573" r="4" class="junc"/>
<polyline points="170,573 170,683 170,683" class="pwr5" fill="none"/>
<circle cx="170" cy="683" r="4" class="junc"/>
<polyline points="170,683 170,793 170,793" class="pwr5" fill="none"/>
<circle cx="170" cy="793" r="4" class="junc"/>
<line x1="170" y1="573" x2="170" y2="573" class="pwr5"/>
<polyline points="375,100 215,100 215,855" class="gnd" fill="none"/>
<polyline points="585,220 215,220" class="gnd" fill="none"/>
<circle cx="215" cy="220" r="4" class="junc"/>
<polyline points="360,390 215,390" class="gnd" fill="none"/>
<circle cx="215" cy="390" r="4" class="junc"/>
<polyline points="805,205 800,205 800,855" class="gnd" fill="none"/>
<polyline points="805,385 800,385" class="gnd" fill="none"/>
<circle cx="800" cy="385" r="4" class="junc"/>
<polyline points="170,593 175,593 175,855" class="gnd" fill="none"/>
<circle cx="175" cy="593" r="4" class="junc"/>
<polyline points="170,703 175,703" class="gnd" fill="none"/>
<circle cx="175" cy="703" r="4" class="junc"/>
<polyline points="170,813 175,813" class="gnd" fill="none"/>
<circle cx="175" cy="813" r="4" class="junc"/>
<polyline points="215,855 177,855 175,855" class="gnd" fill="none"/>
<polyline points="215,855 800,855" class="gnd" fill="none"/>
<polyline points="585,245 800,245 800,180 805,180" class="pwr33" fill="none"/>
<circle cx="800" cy="180" r="4" class="junc"/>
<polyline points="800,180 800,360 805,360" class="pwr33" fill="none"/>
<circle cx="800" cy="360" r="4" class="junc"/>
<polyline points="770,355 790,355 790,30 215,30 215,145 215,145" class="sig" fill="none"/>
<text x="500" y="25" text-anchor="middle" font-size="9" fill="#0033CC">GPIO25 → ESC PWM</text>
<polyline points="585,305 575,305 575,415 360,415" class="i2c" fill="none"/>
<circle cx="575" cy="305" r="4" class="junc"/>
<polyline points="585,330 570,330 570,440 360,440" class="i2c" fill="none"/>
<circle cx="570" cy="330" r="4" class="junc"/>
<polyline points="575,305 808,305 808,230 805,230" class="i2c" fill="none"/>
<circle cx="808" cy="230" r="4" class="junc"/>
<polyline points="808,230 808,410 805,410" class="i2c" fill="none"/>
<circle cx="808" cy="410" r="4" class="junc"/>
<polyline points="570,330 803,330 803,255 805,255" class="i2c" fill="none"/>
<circle cx="803" cy="255" r="4" class="junc"/>
<polyline points="803,255 803,435 805,435" class="i2c" fill="none"/>
<circle cx="803" cy="435" r="4" class="junc"/>
<polyline points="175,470 185,470 185,553 170,553" class="sig" fill="none"/>
<circle cx="185" cy="470" r="4" class="junc"/>
<polyline points="175,492 185,492 185,663 170,663" class="sig" fill="none"/>
<circle cx="185" cy="492" r="4" class="junc"/>
<polyline points="175,514 185,514 185,773 170,773" class="sig" fill="none"/>
<circle cx="185" cy="514" r="4" class="junc"/>
<text x="218" y="860" font-size="9" fill="#006600">GND Bus</text>
<rect x="1020" y="80" width="360" height="370" class="comp" rx="4"/>
<text x="1200" y="98" text-anchor="middle" class="lbl">LEGENDE</text>
<line x1="1040" y1="125" x2="1100" y2="125" class="pwr11"/>
<text x="1110" y="129" font-size="10" fill="#CC0000" font-family="monospace">11.1V (LiPo/ESC)</text>
<line x1="1040" y1="155" x2="1100" y2="155" class="pwr5"/>
<text x="1110" y="159" font-size="10" fill="#CC6600" font-family="monospace">+5V (BEC)</text>
<line x1="1040" y1="185" x2="1100" y2="185" class="pwr33"/>
<text x="1110" y="189" font-size="10" fill="#CC0066" font-family="monospace">+3.3V (ESP32)</text>
<line x1="1040" y1="215" x2="1100" y2="215" class="gnd"/>
<text x="1110" y="219" font-size="10" fill="#006600" font-family="monospace">GND</text>
<line x1="1040" y1="245" x2="1100" y2="245" class="sig"/>
<text x="1110" y="249" font-size="10" fill="#0033CC" font-family="monospace">Signal / PWM</text>
<line x1="1040" y1="275" x2="1100" y2="275" class="i2c"/>
<text x="1110" y="279" font-size="10" fill="#886600" font-family="monospace">I2C (SDA/SCL)</text>
<line x1="1040" y1="305" x2="1100" y2="305" class="mot3"/>
<text x="1110" y="309" font-size="10" fill="#994400" font-family="monospace">Motor Phasen (3-Ph.)</text>
<text x="1040" y="345" font-size="10" font-weight="bold" font-family="monospace">I2C Adressen:</text>
<text x="1040" y="362" font-size="9" font-family="monospace">0x40 → PCA9685</text>
<text x="1040" y="378" font-size="9" font-family="monospace">0x68 → MPU-6050</text>
<text x="1040" y="394" font-size="9" font-family="monospace">0x76 → MS5837</text>
<text x="1040" y="415" font-size="9" font-family="monospace">GPIO25 → ESC PWM (50Hz)</text>
<text x="1040" y="432" font-size="9" font-family="monospace">SDA=GPIO21 / SCL=GPIO22</text>
</svg>