solid CamFollower
  facet normal 0.000000e+00 0.000000e+00 1.000000e+00
    outer loop
      vertex -6.0000 -4.0000 0.0000
      vertex 6.0000 -4.0000 0.0000
      vertex 6.0000 4.0000 0.0000
    endloop
  endfacet
  facet normal 0.000000e+00 0.000000e+00 1.000000e+00
    outer loop
      vertex -6.0000 -4.0000 0.0000
      vertex 6.0000 4.0000 0.0000
      vertex -6.0000 4.0000 0.0000
    endloop
  endfacet
  facet normal 0.000000e+00 0.000000e+00 -1.000000e+00
    outer loop
      vertex -6.0000 -4.0000 15.0000
      vertex 6.0000 4.0000 15.0000
      vertex 6.0000 -4.0000 15.0000
    endloop
  endfacet
  facet normal 0.000000e+00 0.000000e+00 -1.000000e+00
    outer loop
      vertex -6.0000 -4.0000 15.0000
      vertex -6.0000 4.0000 15.0000
      vertex 6.0000 4.0000 15.0000
    endloop
  endfacet
  facet normal 0.000000e+00 1.000000e+00 0.000000e+00
    outer loop
      vertex -6.0000 -4.0000 0.0000
      vertex -6.0000 -4.0000 15.0000
      vertex 6.0000 -4.0000 15.0000
    endloop
  endfacet
  facet normal 0.000000e+00 1.000000e+00 0.000000e+00
    outer loop
      vertex -6.0000 -4.0000 0.0000
      vertex 6.0000 -4.0000 15.0000
      vertex 6.0000 -4.0000 0.0000
    endloop
  endfacet
  facet normal 0.000000e+00 -1.000000e+00 0.000000e+00
    outer loop
      vertex -6.0000 4.0000 0.0000
      vertex 6.0000 4.0000 15.0000
      vertex -6.0000 4.0000 15.0000
    endloop
  endfacet
  facet normal 0.000000e+00 -1.000000e+00 0.000000e+00
    outer loop
      vertex -6.0000 4.0000 0.0000
      vertex 6.0000 4.0000 0.0000
      vertex 6.0000 4.0000 15.0000
    endloop
  endfacet
  facet normal 1.000000e+00 0.000000e+00 0.000000e+00
    outer loop
      vertex -6.0000 -4.0000 0.0000
      vertex -6.0000 4.0000 15.0000
      vertex -6.0000 -4.0000 15.0000
    endloop
  endfacet
  facet normal 1.000000e+00 0.000000e+00 0.000000e+00
    outer loop
      vertex -6.0000 -4.0000 0.0000
      vertex -6.0000 4.0000 0.0000
      vertex -6.0000 4.0000 15.0000
    endloop
  endfacet
  facet normal -1.000000e+00 0.000000e+00 0.000000e+00
    outer loop
      vertex 6.0000 -4.0000 0.0000
      vertex 6.0000 -4.0000 15.0000
      vertex 6.0000 4.0000 15.0000
    endloop
  endfacet
  facet normal -1.000000e+00 0.000000e+00 0.000000e+00
    outer loop
      vertex 6.0000 -4.0000 0.0000
      vertex 6.0000 4.0000 15.0000
      vertex 6.0000 4.0000 0.0000
    endloop
  endfacet
endsolid CamFollower
