solid CrankRod
  facet normal 0.000000e+00 0.000000e+00 1.000000e+00
    outer loop
      vertex 3.0000 0.0000 0.0000
      vertex 2.1213 2.1213 0.0000
      vertex 0.0000 0.0000 0.0000
    endloop
  endfacet
  facet normal 0.000000e+00 0.000000e+00 1.000000e+00
    outer loop
      vertex 3.0000 0.0000 25.0000
      vertex 2.1213 2.1213 25.0000
      vertex 0.0000 0.0000 25.0000
    endloop
  endfacet
  facet normal -9.238795e-01 -3.826834e-01 0.000000e+00
    outer loop
      vertex 3.0000 0.0000 0.0000
      vertex 3.0000 0.0000 25.0000
      vertex 2.1213 2.1213 25.0000
    endloop
  endfacet
  facet normal -9.238795e-01 -3.826834e-01 0.000000e+00
    outer loop
      vertex 3.0000 0.0000 0.0000
      vertex 2.1213 2.1213 25.0000
      vertex 2.1213 2.1213 0.0000
    endloop
  endfacet
  facet normal 0.000000e+00 0.000000e+00 1.000000e+00
    outer loop
      vertex 2.1213 2.1213 0.0000
      vertex 0.0000 3.0000 0.0000
      vertex 0.0000 0.0000 0.0000
    endloop
  endfacet
  facet normal 0.000000e+00 0.000000e+00 1.000000e+00
    outer loop
      vertex 2.1213 2.1213 25.0000
      vertex 0.0000 3.0000 25.0000
      vertex 0.0000 0.0000 25.0000
    endloop
  endfacet
  facet normal -3.826834e-01 -9.238795e-01 0.000000e+00
    outer loop
      vertex 2.1213 2.1213 0.0000
      vertex 2.1213 2.1213 25.0000
      vertex 0.0000 3.0000 25.0000
    endloop
  endfacet
  facet normal -3.826834e-01 -9.238795e-01 0.000000e+00
    outer loop
      vertex 2.1213 2.1213 0.0000
      vertex 0.0000 3.0000 25.0000
      vertex 0.0000 3.0000 0.0000
    endloop
  endfacet
  facet normal 0.000000e+00 0.000000e+00 1.000000e+00
    outer loop
      vertex 0.0000 3.0000 0.0000
      vertex -2.1213 2.1213 0.0000
      vertex 0.0000 0.0000 0.0000
    endloop
  endfacet
  facet normal 0.000000e+00 0.000000e+00 1.000000e+00
    outer loop
      vertex 0.0000 3.0000 25.0000
      vertex -2.1213 2.1213 25.0000
      vertex 0.0000 0.0000 25.0000
    endloop
  endfacet
  facet normal 3.826834e-01 -9.238795e-01 0.000000e+00
    outer loop
      vertex 0.0000 3.0000 0.0000
      vertex 0.0000 3.0000 25.0000
      vertex -2.1213 2.1213 25.0000
    endloop
  endfacet
  facet normal 3.826834e-01 -9.238795e-01 0.000000e+00
    outer loop
      vertex 0.0000 3.0000 0.0000
      vertex -2.1213 2.1213 25.0000
      vertex -2.1213 2.1213 0.0000
    endloop
  endfacet
  facet normal 0.000000e+00 0.000000e+00 1.000000e+00
    outer loop
      vertex -2.1213 2.1213 0.0000
      vertex -3.0000 0.0000 0.0000
      vertex 0.0000 0.0000 0.0000
    endloop
  endfacet
  facet normal 0.000000e+00 0.000000e+00 1.000000e+00
    outer loop
      vertex -2.1213 2.1213 25.0000
      vertex -3.0000 0.0000 25.0000
      vertex 0.0000 0.0000 25.0000
    endloop
  endfacet
  facet normal 9.238795e-01 -3.826834e-01 0.000000e+00
    outer loop
      vertex -2.1213 2.1213 0.0000
      vertex -2.1213 2.1213 25.0000
      vertex -3.0000 0.0000 25.0000
    endloop
  endfacet
  facet normal 9.238795e-01 -3.826834e-01 0.000000e+00
    outer loop
      vertex -2.1213 2.1213 0.0000
      vertex -3.0000 0.0000 25.0000
      vertex -3.0000 0.0000 0.0000
    endloop
  endfacet
  facet normal 0.000000e+00 0.000000e+00 1.000000e+00
    outer loop
      vertex -3.0000 0.0000 0.0000
      vertex -2.1213 -2.1213 0.0000
      vertex 0.0000 0.0000 0.0000
    endloop
  endfacet
  facet normal 0.000000e+00 0.000000e+00 1.000000e+00
    outer loop
      vertex -3.0000 0.0000 25.0000
      vertex -2.1213 -2.1213 25.0000
      vertex 0.0000 0.0000 25.0000
    endloop
  endfacet
  facet normal 9.238795e-01 3.826834e-01 -0.000000e+00
    outer loop
      vertex -3.0000 0.0000 0.0000
      vertex -3.0000 0.0000 25.0000
      vertex -2.1213 -2.1213 25.0000
    endloop
  endfacet
  facet normal 9.238795e-01 3.826834e-01 0.000000e+00
    outer loop
      vertex -3.0000 0.0000 0.0000
      vertex -2.1213 -2.1213 25.0000
      vertex -2.1213 -2.1213 0.0000
    endloop
  endfacet
  facet normal -0.000000e+00 0.000000e+00 1.000000e+00
    outer loop
      vertex -2.1213 -2.1213 0.0000
      vertex -0.0000 -3.0000 0.0000
      vertex 0.0000 0.0000 0.0000
    endloop
  endfacet
  facet normal -0.000000e+00 0.000000e+00 1.000000e+00
    outer loop
      vertex -2.1213 -2.1213 25.0000
      vertex -0.0000 -3.0000 25.0000
      vertex 0.0000 0.0000 25.0000
    endloop
  endfacet
  facet normal 3.826834e-01 9.238795e-01 -0.000000e+00
    outer loop
      vertex -2.1213 -2.1213 0.0000
      vertex -2.1213 -2.1213 25.0000
      vertex -0.0000 -3.0000 25.0000
    endloop
  endfacet
  facet normal 3.826834e-01 9.238795e-01 0.000000e+00
    outer loop
      vertex -2.1213 -2.1213 0.0000
      vertex -0.0000 -3.0000 25.0000
      vertex -0.0000 -3.0000 0.0000
    endloop
  endfacet
  facet normal 0.000000e+00 0.000000e+00 1.000000e+00
    outer loop
      vertex -0.0000 -3.0000 0.0000
      vertex 2.1213 -2.1213 0.0000
      vertex 0.0000 0.0000 0.0000
    endloop
  endfacet
  facet normal 0.000000e+00 0.000000e+00 1.000000e+00
    outer loop
      vertex -0.0000 -3.0000 25.0000
      vertex 2.1213 -2.1213 25.0000
      vertex 0.0000 0.0000 25.0000
    endloop
  endfacet
  facet normal -3.826834e-01 9.238795e-01 0.000000e+00
    outer loop
      vertex -0.0000 -3.0000 0.0000
      vertex -0.0000 -3.0000 25.0000
      vertex 2.1213 -2.1213 25.0000
    endloop
  endfacet
  facet normal -3.826834e-01 9.238795e-01 0.000000e+00
    outer loop
      vertex -0.0000 -3.0000 0.0000
      vertex 2.1213 -2.1213 25.0000
      vertex 2.1213 -2.1213 0.0000
    endloop
  endfacet
  facet normal 0.000000e+00 -0.000000e+00 1.000000e+00
    outer loop
      vertex 2.1213 -2.1213 0.0000
      vertex 3.0000 -0.0000 0.0000
      vertex 0.0000 0.0000 0.0000
    endloop
  endfacet
  facet normal 0.000000e+00 -0.000000e+00 1.000000e+00
    outer loop
      vertex 2.1213 -2.1213 25.0000
      vertex 3.0000 -0.0000 25.0000
      vertex 0.0000 0.0000 25.0000
    endloop
  endfacet
  facet normal -9.238795e-01 3.826834e-01 0.000000e+00
    outer loop
      vertex 2.1213 -2.1213 0.0000
      vertex 2.1213 -2.1213 25.0000
      vertex 3.0000 -0.0000 25.0000
    endloop
  endfacet
  facet normal -9.238795e-01 3.826834e-01 0.000000e+00
    outer loop
      vertex 2.1213 -2.1213 0.0000
      vertex 3.0000 -0.0000 25.0000
      vertex 3.0000 -0.0000 0.0000
    endloop
  endfacet
endsolid CrankRod
