<?xml version="1.0" encoding="UTF-8"?>
<svg xmlns="http://www.w3.org/2000/svg" width="1200" height="900" viewBox="0 0 1200 900">
<rect width="1200" height="900" fill="white"/>
<rect x="10" y="10" width="1180" height="880" fill="none" stroke="#222" stroke-width="1.5"/>
<rect x="15" y="15" width="1170" height="870" fill="none" stroke="#aaa" stroke-width="0.5"/>
<rect x="780" y="825" width="410" height="65" fill="#f5f5f3" stroke="#555" stroke-width="0.8"/>
<line x1="780.0" y1="850.0" x2="1190.0" y2="850.0" stroke="#555" stroke-width="0.5"/>
<line x1="920.0" y1="825.0" x2="920.0" y2="890.0" stroke="#555" stroke-width="0.5"/>
<line x1="1060.0" y1="825.0" x2="1060.0" y2="890.0" stroke="#555" stroke-width="0.5"/>
<text x="990.0" y="840.0" text-anchor="middle" font-size="11" fill="#111" font-weight="bold" font-family="monospace">Biomimetic Shark Robot</text>
<text x="990.0" y="858.0" text-anchor="middle" font-size="9" fill="#444" font-weight="normal" font-family="monospace">Konstruktionszeichnung Rev.1.0</text>
<text x="990.0" y="874.0" text-anchor="middle" font-size="8" fill="#666" font-weight="normal" font-family="monospace">Länge: 600mm | Ø80mm | 4 Gelenke</text>
<text x="850.0" y="840.0" text-anchor="start" font-size="8" fill="#666" font-weight="normal" font-family="monospace">Erstellt:</text>
<text x="850.0" y="855.0" text-anchor="start" font-size="9" fill="#333" font-weight="normal" font-family="monospace">2026-06</text>
<text x="850.0" y="870.0" text-anchor="start" font-size="9" fill="#333" font-weight="normal" font-family="monospace">hcousin</text>
<text x="1125.0" y="840.0" text-anchor="middle" font-size="8" fill="#666" font-weight="normal" font-family="monospace">Massstab</text>
<text x="1125.0" y="855.0" text-anchor="middle" font-size="10" fill="#111" font-weight="bold" font-family="monospace">1:3</text>
<text x="1125.0" y="872.0" text-anchor="middle" font-size="8" fill="#666" font-weight="normal" font-family="monospace">Einheit: mm</text>
<text x="600.0" y="35.0" text-anchor="middle" font-size="13" fill="#111" font-weight="bold" font-family="monospace">BIOMIMETISCHER HAIFISCH-ROBOTER — VOLLSTÄNDIGE TECHNISCHE ZEICHNUNG</text>
<text x="30.0" y="58.0" text-anchor="start" font-size="10" fill="#333" font-weight="bold" font-family="monospace">A — SEITENRISS (1:3)</text>
<line x1="30.0" y1="62.0" x2="750.0" y2="62.0" stroke="#bbb" stroke-width="0.4"/>
<line x1="40.0" y1="185.0" x2="266.5" y2="185.0" stroke="#aaa" stroke-width="0.5" stroke-dasharray="6,3"/>
<path d="M 50.0,185.0 50.0,185.0 L 51.4,182.0 L 52.8,180.7 L 54.2,179.7 L 55.6,178.9 L 57.0,178.2 L 58.4,177.5 L 59.8,176.9 L 61.2,176.4 L 62.6,175.9 L 64.0,175.4 L 65.4,174.9 L 66.8,174.4 L 68.2,174.0 L 69.6,173.6 L 71.0,173.2 L 72.4,172.8 L 73.8,172.4 L 75.2,172.1 L 76.6,171.7 L 176.5,171.7 C 196.5,171.7 209.8,177.7 219.8,179.0 L 239.8,163.7 C 248.1,159.7 253.1,178.3 243.1,185.0 C 253.1,191.7 248.1,210.3 239.8,206.3 L 219.8,191.0 C 209.8,192.3 196.5,198.3 176.5,198.3 L 76.6,198.3 L 76.6,198.3 L 75.2,197.9 L 73.8,197.6 L 72.4,197.2 L 71.0,196.8 L 69.6,196.4 L 68.2,196.0 L 66.8,195.6 L 65.4,195.1 L 64.0,194.6 L 62.6,194.1 L 61.2,193.6 L 59.8,193.1 L 58.4,192.5 L 57.0,191.8 L 55.6,191.1 L 54.2,190.3 L 52.8,189.3 L 51.4,188.0 L 50.0,185.0 Z" stroke="#334" stroke-width="1.2" fill="#ECF3FA"/>
<path d="M 76.6,171.7 L 176.5,171.7" stroke="#7aabcc" stroke-width="0.4" fill="none"/>
<path d="M 123.3,171.7 C 116.6,135.7 129.9,131.7 146.6,153.7 L 153.2,171.7 Z" stroke="#334" stroke-width="1" fill="#D0E4F0"/>
<path d="M 98.3,171.7 C 80.3,149.7 113.3,139.7 128.3,163.7 L 113.3,171.7 Z" stroke="#334" stroke-width="0.8" fill="#C8DCEA"/>
<rect x="176.5" y="173.0" width="11.7" height="24.0" rx="2" fill="#E8F4FC" stroke="#556" stroke-width="0.6"/>
<rect x="189.9" y="173.9" width="11.7" height="22.1" rx="2" fill="#D5EAF7" stroke="#556" stroke-width="0.6"/>
<rect x="203.2" y="174.9" width="11.7" height="20.2" rx="2" fill="#C0DEF0" stroke="#556" stroke-width="0.6"/>
<rect x="216.5" y="175.8" width="11.7" height="18.4" rx="2" fill="#A8CEEA" stroke="#556" stroke-width="0.6"/>
<circle cx="182.4" cy="185.0" r="2.5" fill="#334"/>
<circle cx="182.4" cy="185.0" r="1" fill="white"/>
<circle cx="195.7" cy="185.0" r="2.5" fill="#334"/>
<circle cx="195.7" cy="185.0" r="1" fill="white"/>
<circle cx="209.0" cy="185.0" r="2.5" fill="#334"/>
<circle cx="209.0" cy="185.0" r="1" fill="white"/>
<circle cx="222.3" cy="185.0" r="2.5" fill="#334"/>
<circle cx="222.3" cy="185.0" r="1" fill="white"/>
<rect x="55.0" y="174.7" width="88.2" height="20.6" rx="3" fill="none" stroke="#2266aa" stroke-width="0.7" stroke-dasharray="4,2"/>
<text x="96.6" y="185.7" text-anchor="middle" font-size="8" fill="#2266aa" font-weight="normal" font-family="monospace">Elektronik + Akku</text>
<rect x="56.7" y="177.0" width="36.6" height="16" rx="2" fill="#FFF0DD" stroke="#CC6600" stroke-width="0.7"/>
<text x="75.0" y="188.0" text-anchor="middle" font-size="7" fill="#884400" font-weight="normal" font-family="monospace">Motor + Nocke</text>
<rect x="144.9" y="176.0" width="73.0" height="18" rx="2" fill="#E0FFE8" stroke="#226622" stroke-width="0.7"/>
<text x="156.9" y="188.5" text-anchor="middle" font-size="7" fill="#115511" font-weight="normal" font-family="monospace">Ballast</text>
<line x1="50.0" y1="193.3" x2="50.0" y2="220.3" stroke="#555" stroke-width="0.5" stroke-dasharray="3,2"/>
<line x1="249.8" y1="193.3" x2="249.8" y2="220.3" stroke="#555" stroke-width="0.5" stroke-dasharray="3,2"/>
<line x1="50.0" y1="198.3" x2="249.8" y2="198.3" stroke="#555" stroke-width="0.6"/>
<polygon points="50,198.32 56,195.32 56,201.32" fill="#555"/>
<polygon points="249.8,198.32 243.8,195.32 243.8,201.32" fill="#555"/>
<text x="149.9" y="191.3" text-anchor="middle" font-size="9" fill="#555" font-weight="normal" font-family="monospace">600 mm (Gesamtlänge)</text>
<line x1="50.0" y1="193.3" x2="50.0" y2="240.3" stroke="#777" stroke-width="0.5" stroke-dasharray="3,2"/>
<line x1="176.5" y1="193.3" x2="176.5" y2="240.3" stroke="#777" stroke-width="0.5" stroke-dasharray="3,2"/>
<line x1="50.0" y1="198.3" x2="176.5" y2="198.3" stroke="#777" stroke-width="0.6"/>
<polygon points="50,198.32 56,195.32 56,201.32" fill="#777"/>
<polygon points="176.54000000000002,198.32 170.54000000000002,195.32 170.54000000000002,201.32" fill="#777"/>
<text x="113.3" y="191.3" text-anchor="middle" font-size="9" fill="#777" font-weight="normal" font-family="monospace">380 mm (Rumpf)</text>
<line x1="252.8" y1="171.7" x2="274.8" y2="171.7" stroke="#555" stroke-width="0.5" stroke-dasharray="3,2"/>
<line x1="252.8" y1="198.3" x2="274.8" y2="198.3" stroke="#555" stroke-width="0.5" stroke-dasharray="3,2"/>
<line x1="269.8" y1="171.7" x2="269.8" y2="198.3" stroke="#555" stroke-width="0.6"/>
<polygon points="269.8,171.68 272.8,177.68 266.8,177.68" fill="#555"/>
<polygon points="269.8,198.32 272.8,192.32 266.8,192.32" fill="#555"/>
<text x="282.8" y="185.0" text-anchor="start" font-size="9" fill="#555" font-weight="normal" font-family="monospace">Ø 80</text>
<line x1="242.8" y1="163.7" x2="279.8" y2="163.7" stroke="#777" stroke-width="0.5" stroke-dasharray="3,2"/>
<line x1="242.8" y1="206.3" x2="279.8" y2="206.3" stroke="#777" stroke-width="0.5" stroke-dasharray="3,2"/>
<line x1="274.8" y1="163.7" x2="274.8" y2="206.3" stroke="#777" stroke-width="0.6"/>
<polygon points="274.81,163.688 277.81,169.688 271.81,169.688" fill="#777"/>
<polygon points="274.81,206.312 277.81,200.312 271.81,200.312" fill="#777"/>
<text x="287.8" y="185.0" text-anchor="start" font-size="9" fill="#777" font-weight="normal" font-family="monospace">100</text>
<line x1="108.3" y1="151.7" x2="73.3" y2="126.7" stroke="#888" stroke-width="0.5"/>
<circle cx="108.3" cy="151.7" r="2" fill="#888"/>
<text x="68.3" y="129.7" text-anchor="end" font-size="8" fill="#334" font-weight="normal" font-family="monospace">Brustflosse (NACA0010)</text>
<line x1="134.9" y1="141.7" x2="139.9" y2="116.7" stroke="#888" stroke-width="0.5"/>
<circle cx="134.9" cy="141.7" r="2" fill="#888"/>
<text x="144.9" y="119.7" text-anchor="start" font-size="8" fill="#334" font-weight="normal" font-family="monospace">Rückenflosse</text>
<line x1="243.1" y1="166.4" x2="263.1" y2="169.0" stroke="#888" stroke-width="0.5"/>
<circle cx="243.1" cy="166.4" r="2" fill="#888"/>
<text x="268.1" y="172.0" text-anchor="start" font-size="8" fill="#334" font-weight="normal" font-family="monospace">Schwanzflosse (lunate)</text>
<line x1="75.0" y1="177.0" x2="56.7" y2="150.0" stroke="#888" stroke-width="0.5"/>
<circle cx="75.0" cy="177.0" r="2" fill="#888"/>
<text x="51.7" y="153.0" text-anchor="end" font-size="8" fill="#334" font-weight="normal" font-family="monospace">BL-Motor KV=900</text>
<line x1="156.9" y1="176.0" x2="156.9" y2="147.0" stroke="#888" stroke-width="0.5"/>
<circle cx="156.9" cy="176.0" r="2" fill="#888"/>
<text x="161.9" y="150.0" text-anchor="start" font-size="8" fill="#334" font-weight="normal" font-family="monospace">Ballast 20ml</text>
<text x="182.4" y="165.0" text-anchor="middle" font-size="8" fill="#445566" font-weight="normal" font-family="monospace">J1</text>
<text x="195.7" y="165.9" text-anchor="middle" font-size="8" fill="#445566" font-weight="normal" font-family="monospace">J2</text>
<text x="209.0" y="166.9" text-anchor="middle" font-size="8" fill="#445566" font-weight="normal" font-family="monospace">J3</text>
<text x="222.3" y="167.8" text-anchor="middle" font-size="8" fill="#445566" font-weight="normal" font-family="monospace">J4</text>
<text x="30.0" y="290.0" text-anchor="start" font-size="10" fill="#333" font-weight="bold" font-family="monospace">B — DRAUFSICHT (1:3)</text>
<line x1="30.0" y1="294.0" x2="750.0" y2="294.0" stroke="#bbb" stroke-width="0.4"/>
<line x1="40.0" y1="390.0" x2="266.5" y2="390.0" stroke="#aaa" stroke-width="0.5" stroke-dasharray="6,3"/>
<path d="M 50.0,390.0 L 50.0,390.0 L 51.4,388.0 L 52.8,387.1 L 54.2,386.5 L 55.6,385.9 L 57.0,385.4 L 58.4,385.0 L 59.8,384.6 L 61.2,384.2 L 62.6,383.9 L 64.0,383.5 L 65.4,383.2 L 66.8,382.9 L 68.2,382.6 L 69.6,382.4 L 71.0,382.1 L 72.4,381.8 L 73.8,381.6 L 75.2,381.3 L 76.6,381.1 L 176.5,376.7 C 196.5,376.7 213.2,382.0 219.8,383.0 C 229.8,383.0 239.8,370.0 249.1,386.0 L 249.8,390.0 L 249.1,394.0 C 239.8,410.0 229.8,397.0 219.8,397.0 C 213.2,398.0 196.5,403.3 176.5,403.3 L 76.6,403.3 L 76.6,398.9 L 75.2,398.7 L 73.8,398.4 L 72.4,398.2 L 71.0,397.9 L 69.6,397.6 L 68.2,397.4 L 66.8,397.1 L 65.4,396.8 L 64.0,396.5 L 62.6,396.1 L 61.2,395.8 L 59.8,395.4 L 58.4,395.0 L 57.0,394.6 L 55.6,394.1 L 54.2,393.5 L 52.8,392.9 L 51.4,392.0 L 50.0,390.0 Z" stroke="#334" stroke-width="1.2" fill="#ECF3FA"/>
<path d="M 90.0,376.7 C 83.3,351.7 101.6,344.7 108.3,366.7 L 104.9,376.7 Z" stroke="#334" stroke-width="0.8" fill="#C8DCEA"/>
<line x1="95.6" y1="360.7" x2="76.6" y2="346.7" stroke="#888" stroke-width="0.5"/>
<circle cx="95.6" cy="360.7" r="2" fill="#888"/>
<text x="81.6" y="349.7" text-anchor="start" font-size="7" fill="#334" font-weight="normal" font-family="monospace">Brustflosse Links</text>
<path d="M 90.0,403.3 C 83.3,428.3 101.6,435.3 108.3,413.3 L 104.9,403.3 Z" stroke="#334" stroke-width="0.8" fill="#C8DCEA"/>
<line x1="95.6" y1="419.3" x2="76.6" y2="433.3" stroke="#888" stroke-width="0.5"/>
<circle cx="95.6" cy="419.3" r="2" fill="#888"/>
<text x="71.6" y="436.3" text-anchor="end" font-size="7" fill="#334" font-weight="normal" font-family="monospace">Brustflosse Rechts</text>
<line x1="123.3" y1="376.7" x2="153.2" y2="376.7" stroke="#334" stroke-width="0.6" stroke-dasharray="2,2"/>
<rect x="176.5" y="378.3" width="11.7" height="23.4" rx="1" fill="#E8F4FC" stroke="#556" stroke-width="0.5"/>
<rect x="189.9" y="379.2" width="11.0" height="21.6" rx="1" fill="#D5EAF7" stroke="#556" stroke-width="0.5"/>
<rect x="203.2" y="380.1" width="10.3" height="19.7" rx="1" fill="#C0DEF0" stroke="#556" stroke-width="0.5"/>
<rect x="216.5" y="381.1" width="9.7" height="17.8" rx="1" fill="#A8CEEA" stroke="#556" stroke-width="0.5"/>
<circle cx="182.4" cy="393.8" r="1.5" fill="#99BBDD" opacity="0.7"/>
<circle cx="195.7" cy="393.8" r="1.5" fill="#99BBDD" opacity="0.7"/>
<circle cx="209.0" cy="386.2" r="1.5" fill="#99BBDD" opacity="0.7"/>
<circle cx="222.3" cy="386.2" r="1.5" fill="#99BBDD" opacity="0.7"/>
<text x="790.0" y="58.0" text-anchor="start" font-size="10" fill="#333" font-weight="bold" font-family="monospace">C — QUERSCHNITT A-A (1:2)</text>
<line x1="790.0" y1="62.0" x2="1170.0" y2="62.0" stroke="#bbb" stroke-width="0.4"/>
<line x1="83.3" y1="136.7" x2="83.3" y2="213.3" stroke="#CC3333" stroke-width="0.8" stroke-dasharray="5,3"/>
<text x="83.3" y="220.3" text-anchor="middle" font-size="8" fill="#CC3333" font-weight="normal" font-family="monospace">A–A</text>
<circle cx="900" cy="175" r="70" fill="#EDF6FC" stroke="#334" stroke-width="1.5"/>
<circle cx="900" cy="175" r="60" fill="white" stroke="#556" stroke-width="0.5"/>
<rect x="872" y="157" width="56" height="36" rx="3" fill="#E8F0FF" stroke="#2255CC" stroke-width="0.8"/>
<text x="900.0" y="171.0" text-anchor="middle" font-size="8" fill="#2255CC" font-weight="normal" font-family="monospace">ESP32</text>
<text x="900.0" y="183.0" text-anchor="middle" font-size="7" fill="#2255CC" font-weight="normal" font-family="monospace">PCB</text>
<rect x="842" y="160" width="24" height="30" rx="2" fill="#FFF3CC" stroke="#BB8800" stroke-width="0.8"/>
<text x="854.0" y="179.0" text-anchor="middle" font-size="7" fill="#885500" font-weight="normal" font-family="monospace">BAT</text>
<circle cx="942" cy="175" r="12" fill="#FFE8CC" stroke="#CC5500" stroke-width="0.8"/>
<text x="942.0" y="179.0" text-anchor="middle" font-size="8" fill="#884400" font-weight="normal" font-family="monospace">M</text>
<circle cx="900" cy="175" r="69" fill="none" stroke="#CC3333" stroke-width="2.5" stroke-dasharray="3,4" opacity="0.5"/>
<text x="982.0" y="163.0" text-anchor="start" font-size="7" fill="#CC3333" font-weight="normal" font-family="monospace">O-Ring</text>
<line x1="968.0" y1="167.0" x2="980.0" y2="161.0" stroke="#CC3333" stroke-width="0.5"/>
<line x1="810.0" y1="175.0" x2="825.0" y2="175.0" stroke="#555" stroke-width="0.5" stroke-dasharray="3,2"/>
<line x1="840.0" y1="175.0" x2="855.0" y2="175.0" stroke="#555" stroke-width="0.5" stroke-dasharray="3,2"/>
<text x="808.0" y="171.0" text-anchor="end" font-size="8" fill="#555" font-weight="normal" font-family="monospace">3</text>
<text x="808.0" y="183.0" text-anchor="end" font-size="7" fill="#777" font-weight="normal" font-family="monospace">mm</text>
<line x1="900.0" y1="80.0" x2="900.0" y2="250.0" stroke="#555" stroke-width="0.5" stroke-dasharray="3,2"/>
<text x="905.0" y="95.0" text-anchor="start" font-size="9" fill="#555" font-weight="normal" font-family="monospace">Ø80</text>
<text x="790.0" y="290.0" text-anchor="start" font-size="10" fill="#333" font-weight="bold" font-family="monospace">D — DETAIL NOCKENWELLE (1:1)</text>
<line x1="790.0" y1="294.0" x2="1170.0" y2="294.0" stroke="#bbb" stroke-width="0.4"/>
<line x1="830.0" y1="390.0" x2="970.0" y2="390.0" stroke="#aaa" stroke-width="0.3" stroke-dasharray="4,2"/>
<rect x="840" y="384" width="120" height="12" rx="2" fill="#E8F0F8" stroke="#334" stroke-width="1"/>
<ellipse cx="860.0" cy="393.0" rx="8" ry="5" fill="#C0D8F0" stroke="#445" stroke-width="0.8" opacity="0.9"/>
<rect x="855.0" y="400.0" width="10" height="6" rx="1" fill="#FFE0A0" stroke="#886600" stroke-width="0.7"/>
<line x1="860.0" y1="400.0" x2="860.0" y2="418.0" stroke="#334" stroke-width="0.8"/>
<circle cx="860.0" cy="418.0" r="3" fill="white" stroke="#334" stroke-width="0.8"/>
<text x="860.0" y="435.0" text-anchor="middle" font-size="7" fill="#334" font-weight="normal" font-family="monospace">J1
0°</text>
<ellipse cx="885.0" cy="390.0" rx="8" ry="5" fill="#A8C8E8" stroke="#445" stroke-width="0.8" opacity="0.9"/>
<rect x="880.0" y="398.0" width="10" height="6" rx="1" fill="#FFE0A0" stroke="#886600" stroke-width="0.7"/>
<line x1="885.0" y1="398.0" x2="885.0" y2="416.0" stroke="#334" stroke-width="0.8"/>
<circle cx="885.0" cy="416.0" r="3" fill="white" stroke="#334" stroke-width="0.8"/>
<text x="885.0" y="433.0" text-anchor="middle" font-size="7" fill="#334" font-weight="normal" font-family="monospace">J2
90°</text>
<ellipse cx="915.0" cy="387.0" rx="8" ry="5" fill="#90B8E0" stroke="#445" stroke-width="0.8" opacity="0.9"/>
<rect x="910.0" y="400.0" width="10" height="6" rx="1" fill="#FFE0A0" stroke="#886600" stroke-width="0.7"/>
<line x1="915.0" y1="400.0" x2="915.0" y2="418.0" stroke="#334" stroke-width="0.8"/>
<circle cx="915.0" cy="418.0" r="3" fill="white" stroke="#334" stroke-width="0.8"/>
<text x="915.0" y="435.0" text-anchor="middle" font-size="7" fill="#334" font-weight="normal" font-family="monospace">J3
180°</text>
<ellipse cx="940.0" cy="390.0" rx="8" ry="5" fill="#78A8D8" stroke="#445" stroke-width="0.8" opacity="0.9"/>
<rect x="935.0" y="398.0" width="10" height="6" rx="1" fill="#FFE0A0" stroke="#886600" stroke-width="0.7"/>
<line x1="940.0" y1="398.0" x2="940.0" y2="416.0" stroke="#334" stroke-width="0.8"/>
<circle cx="940.0" cy="416.0" r="3" fill="white" stroke="#334" stroke-width="0.8"/>
<text x="940.0" y="433.0" text-anchor="middle" font-size="7" fill="#334" font-weight="normal" font-family="monospace">J4
270°</text>
<line x1="840.0" y1="412.0" x2="960.0" y2="412.0" stroke="#555" stroke-width="0.6"/>
<polygon points="840,412 845,409 845,415" fill="#555"/>
<polygon points="960,412 955,409 955,415" fill="#555"/>
<text x="900.0" y="422.0" text-anchor="middle" font-size="8" fill="#555" font-weight="normal" font-family="monospace">120 mm</text>
<text x="822.0" y="393.0" text-anchor="end" font-size="7" fill="#CC5500" font-weight="normal" font-family="monospace">e=3mm</text>
<text x="822.0" y="387.0" text-anchor="end" font-size="7" fill="#2255CC" font-weight="normal" font-family="monospace">R₀=8mm</text>
<text x="790.0" y="485.0" text-anchor="start" font-size="10" fill="#333" font-weight="bold" font-family="monospace">E — KOMPONENTENLISTE</text>
<line x1="790.0" y1="489.0" x2="1175.0" y2="489.0" stroke="#bbb" stroke-width="0.4"/>
<rect x="790" y="500" width="375" height="310" fill="#FAFAF8" stroke="#CCC" stroke-width="0.5"/>
<text x="802.0" y="514.0" text-anchor="start" font-size="8" fill="#444" font-weight="bold" font-family="monospace">Nr.</text>
<text x="832.0" y="514.0" text-anchor="start" font-size="8" fill="#444" font-weight="bold" font-family="monospace">Bezeichnung</text>
<text x="977.0" y="514.0" text-anchor="start" font-size="8" fill="#444" font-weight="bold" font-family="monospace">Material / Typ</text>
<text x="1132.0" y="514.0" text-anchor="start" font-size="8" fill="#444" font-weight="bold" font-family="monospace">Menge</text>
<line x1="790.0" y1="518.0" x2="1165.0" y2="518.0" stroke="#CCC" stroke-width="0.5"/>
<rect x="790" y="518" width="375" height="17" fill="#F5F5F3"/>
<text x="802.0" y="529.0" text-anchor="start" font-size="8" fill="#222" font-weight="normal" font-family="monospace">1</text>
<text x="832.0" y="529.0" text-anchor="start" font-size="8" fill="#222" font-weight="normal" font-family="monospace">Hauptgehäuse</text>
<text x="977.0" y="529.0" text-anchor="start" font-size="8" fill="#222" font-weight="normal" font-family="monospace">PETG 3D-Druck</text>
<text x="1132.0" y="529.0" text-anchor="start" font-size="8" fill="#222" font-weight="normal" font-family="monospace">1</text>
<rect x="790" y="535" width="375" height="17" fill="white"/>
<text x="802.0" y="546.0" text-anchor="start" font-size="8" fill="#222" font-weight="normal" font-family="monospace">2</text>
<text x="832.0" y="546.0" text-anchor="start" font-size="8" fill="#222" font-weight="normal" font-family="monospace">Elektronik-Deckel</text>
<text x="977.0" y="546.0" text-anchor="start" font-size="8" fill="#222" font-weight="normal" font-family="monospace">PETG + O-Ring</text>
<text x="1132.0" y="546.0" text-anchor="start" font-size="8" fill="#222" font-weight="normal" font-family="monospace">2</text>
<rect x="790" y="552" width="375" height="17" fill="#F5F5F3"/>
<text x="802.0" y="563.0" text-anchor="start" font-size="8" fill="#222" font-weight="normal" font-family="monospace">3</text>
<text x="832.0" y="563.0" text-anchor="start" font-size="8" fill="#222" font-weight="normal" font-family="monospace">Brushless Motor</text>
<text x="977.0" y="563.0" text-anchor="start" font-size="8" fill="#222" font-weight="normal" font-family="monospace">KV=900, 20W</text>
<text x="1132.0" y="563.0" text-anchor="start" font-size="8" fill="#222" font-weight="normal" font-family="monospace">1</text>
<rect x="790" y="569" width="375" height="17" fill="white"/>
<text x="802.0" y="580.0" text-anchor="start" font-size="8" fill="#222" font-weight="normal" font-family="monospace">4</text>
<text x="832.0" y="580.0" text-anchor="start" font-size="8" fill="#222" font-weight="normal" font-family="monospace">Nockenwelle</text>
<text x="977.0" y="580.0" text-anchor="start" font-size="8" fill="#222" font-weight="normal" font-family="monospace">Edelstahl 1.4104</text>
<text x="1132.0" y="580.0" text-anchor="start" font-size="8" fill="#222" font-weight="normal" font-family="monospace">1</text>
<rect x="790" y="586" width="375" height="17" fill="#F5F5F3"/>
<text x="802.0" y="597.0" text-anchor="start" font-size="8" fill="#222" font-weight="normal" font-family="monospace">5</text>
<text x="832.0" y="597.0" text-anchor="start" font-size="8" fill="#222" font-weight="normal" font-family="monospace">Gelenk J1-J4</text>
<text x="977.0" y="597.0" text-anchor="start" font-size="8" fill="#222" font-weight="normal" font-family="monospace">PETG 50% Infill</text>
<text x="1132.0" y="597.0" text-anchor="start" font-size="8" fill="#222" font-weight="normal" font-family="monospace">4</text>
<rect x="790" y="603" width="375" height="17" fill="white"/>
<text x="802.0" y="614.0" text-anchor="start" font-size="8" fill="#222" font-weight="normal" font-family="monospace">6</text>
<text x="832.0" y="614.0" text-anchor="start" font-size="8" fill="#222" font-weight="normal" font-family="monospace">Passivgelenk J4</text>
<text x="977.0" y="614.0" text-anchor="start" font-size="8" fill="#222" font-weight="normal" font-family="monospace">TPU 95A</text>
<text x="1132.0" y="614.0" text-anchor="start" font-size="8" fill="#222" font-weight="normal" font-family="monospace">1</text>
<rect x="790" y="620" width="375" height="17" fill="#F5F5F3"/>
<text x="802.0" y="631.0" text-anchor="start" font-size="8" fill="#222" font-weight="normal" font-family="monospace">7</text>
<text x="832.0" y="631.0" text-anchor="start" font-size="8" fill="#222" font-weight="normal" font-family="monospace">Schwanzflosse</text>
<text x="977.0" y="631.0" text-anchor="start" font-size="8" fill="#222" font-weight="normal" font-family="monospace">Silikon DS10+CFK</text>
<text x="1132.0" y="631.0" text-anchor="start" font-size="8" fill="#222" font-weight="normal" font-family="monospace">1</text>
<rect x="790" y="637" width="375" height="17" fill="white"/>
<text x="802.0" y="648.0" text-anchor="start" font-size="8" fill="#222" font-weight="normal" font-family="monospace">8</text>
<text x="832.0" y="648.0" text-anchor="start" font-size="8" fill="#222" font-weight="normal" font-family="monospace">Brustflossen</text>
<text x="977.0" y="648.0" text-anchor="start" font-size="8" fill="#222" font-weight="normal" font-family="monospace">Silikon DS10 Slow</text>
<text x="1132.0" y="648.0" text-anchor="start" font-size="8" fill="#222" font-weight="normal" font-family="monospace">2</text>
<rect x="790" y="654" width="375" height="17" fill="#F5F5F3"/>
<text x="802.0" y="665.0" text-anchor="start" font-size="8" fill="#222" font-weight="normal" font-family="monospace">9</text>
<text x="832.0" y="665.0" text-anchor="start" font-size="8" fill="#222" font-weight="normal" font-family="monospace">Rückenflosse</text>
<text x="977.0" y="665.0" text-anchor="start" font-size="8" fill="#222" font-weight="normal" font-family="monospace">PLA+ (dekorativ)</text>
<text x="1132.0" y="665.0" text-anchor="start" font-size="8" fill="#222" font-weight="normal" font-family="monospace">1</text>
<rect x="790" y="671" width="375" height="17" fill="white"/>
<text x="802.0" y="682.0" text-anchor="start" font-size="8" fill="#222" font-weight="normal" font-family="monospace">10</text>
<text x="832.0" y="682.0" text-anchor="start" font-size="8" fill="#222" font-weight="normal" font-family="monospace">Kugellager 626-ZZ</text>
<text x="977.0" y="682.0" text-anchor="start" font-size="8" fill="#222" font-weight="normal" font-family="monospace">Ø6/19/6mm</text>
<text x="1132.0" y="682.0" text-anchor="start" font-size="8" fill="#222" font-weight="normal" font-family="monospace">8</text>
<rect x="790" y="688" width="375" height="17" fill="#F5F5F3"/>
<text x="802.0" y="699.0" text-anchor="start" font-size="8" fill="#222" font-weight="normal" font-family="monospace">11</text>
<text x="832.0" y="699.0" text-anchor="start" font-size="8" fill="#222" font-weight="normal" font-family="monospace">ESP32 DevKit</text>
<text x="977.0" y="699.0" text-anchor="start" font-size="8" fill="#222" font-weight="normal" font-family="monospace">WiFi/BT, 240MHz</text>
<text x="1132.0" y="699.0" text-anchor="start" font-size="8" fill="#222" font-weight="normal" font-family="monospace">1</text>
<rect x="790" y="705" width="375" height="17" fill="white"/>
<text x="802.0" y="716.0" text-anchor="start" font-size="8" fill="#222" font-weight="normal" font-family="monospace">12</text>
<text x="832.0" y="716.0" text-anchor="start" font-size="8" fill="#222" font-weight="normal" font-family="monospace">MS5837-30BA</text>
<text x="977.0" y="716.0" text-anchor="start" font-size="8" fill="#222" font-weight="normal" font-family="monospace">Tiefensensor 0x76</text>
<text x="1132.0" y="716.0" text-anchor="start" font-size="8" fill="#222" font-weight="normal" font-family="monospace">1</text>
<rect x="790" y="722" width="375" height="17" fill="#F5F5F3"/>
<text x="802.0" y="733.0" text-anchor="start" font-size="8" fill="#222" font-weight="normal" font-family="monospace">13</text>
<text x="832.0" y="733.0" text-anchor="start" font-size="8" fill="#222" font-weight="normal" font-family="monospace">MPU-6050</text>
<text x="977.0" y="733.0" text-anchor="start" font-size="8" fill="#222" font-weight="normal" font-family="monospace">IMU 6-DOF 0x68</text>
<text x="1132.0" y="733.0" text-anchor="start" font-size="8" fill="#222" font-weight="normal" font-family="monospace">1</text>
<rect x="790" y="739" width="375" height="17" fill="white"/>
<text x="802.0" y="750.0" text-anchor="start" font-size="8" fill="#222" font-weight="normal" font-family="monospace">14</text>
<text x="832.0" y="750.0" text-anchor="start" font-size="8" fill="#222" font-weight="normal" font-family="monospace">PCA9685</text>
<text x="977.0" y="750.0" text-anchor="start" font-size="8" fill="#222" font-weight="normal" font-family="monospace">I2C Servo Driver</text>
<text x="1132.0" y="750.0" text-anchor="start" font-size="8" fill="#222" font-weight="normal" font-family="monospace">1</text>
<rect x="790" y="756" width="375" height="17" fill="#F5F5F3"/>
<text x="802.0" y="767.0" text-anchor="start" font-size="8" fill="#222" font-weight="normal" font-family="monospace">15</text>
<text x="832.0" y="767.0" text-anchor="start" font-size="8" fill="#222" font-weight="normal" font-family="monospace">ESC 20A</text>
<text x="977.0" y="767.0" text-anchor="start" font-size="8" fill="#222" font-weight="normal" font-family="monospace">Hobbywing + BEC</text>
<text x="1132.0" y="767.0" text-anchor="start" font-size="8" fill="#222" font-weight="normal" font-family="monospace">1</text>
<rect x="790" y="773" width="375" height="17" fill="white"/>
<text x="802.0" y="784.0" text-anchor="start" font-size="8" fill="#222" font-weight="normal" font-family="monospace">16</text>
<text x="832.0" y="784.0" text-anchor="start" font-size="8" fill="#222" font-weight="normal" font-family="monospace">LiPo 3S</text>
<text x="977.0" y="784.0" text-anchor="start" font-size="8" fill="#222" font-weight="normal" font-family="monospace">11.1V 2200mAh</text>
<text x="1132.0" y="784.0" text-anchor="start" font-size="8" fill="#222" font-weight="normal" font-family="monospace">1</text>
<rect x="790" y="790" width="375" height="17" fill="#F5F5F3"/>
<text x="802.0" y="801.0" text-anchor="start" font-size="8" fill="#222" font-weight="normal" font-family="monospace">17</text>
<text x="832.0" y="801.0" text-anchor="start" font-size="8" fill="#222" font-weight="normal" font-family="monospace">Ballast</text>
<text x="977.0" y="801.0" text-anchor="start" font-size="8" fill="#222" font-weight="normal" font-family="monospace">Spritze 20ml</text>
<text x="1132.0" y="801.0" text-anchor="start" font-size="8" fill="#222" font-weight="normal" font-family="monospace">1</text>
</svg>